<mxfile host="Electron" modified="2024-07-05T09:57:20.010Z" agent="Mozilla/5.0 (X11; Linux x86_64) AppleWebKit/537.36 (KHTML, like Gecko) draw.io/24.0.4 Chrome/120.0.6099.109 Electron/28.1.0 Safari/537.36" etag="mCRwQ3fW95V4ppXxBkwi" version="24.0.4" type="device">
  <diagram name="Page-1" id="ITq8F3WYMeoBdxwdFw_K">
    <mxGraphModel dx="1912" dy="1120" grid="0" gridSize="10" guides="1" tooltips="1" connect="1" arrows="1" fold="1" page="1" pageScale="1" pageWidth="1169" pageHeight="827" background="#ffffff" math="0" shadow="0">
      <root>
        <mxCell id="0" />
        <mxCell id="1" parent="0" />
        <mxCell id="GKxMql-4dVrDTyN0ciHh-47" value="" style="group" vertex="1" connectable="0" parent="1">
          <mxGeometry x="123" y="91" width="923" height="645" as="geometry" />
        </mxCell>
        <mxCell id="GKxMql-4dVrDTyN0ciHh-27" value="" style="group" vertex="1" connectable="0" parent="GKxMql-4dVrDTyN0ciHh-47">
          <mxGeometry x="422" width="501" height="493" as="geometry" />
        </mxCell>
        <mxCell id="GKxMql-4dVrDTyN0ciHh-18" value="" style="group" vertex="1" connectable="0" parent="GKxMql-4dVrDTyN0ciHh-27">
          <mxGeometry x="351" y="12" width="150" height="481" as="geometry" />
        </mxCell>
        <mxCell id="GKxMql-4dVrDTyN0ciHh-9" style="edgeStyle=orthogonalEdgeStyle;rounded=0;orthogonalLoop=1;jettySize=auto;html=1;strokeColor=#000000;endArrow=baseDash;endFill=0;" edge="1" parent="GKxMql-4dVrDTyN0ciHh-18" source="GKxMql-4dVrDTyN0ciHh-1">
          <mxGeometry relative="1" as="geometry">
            <mxPoint x="52" y="313" as="targetPoint" />
          </mxGeometry>
        </mxCell>
        <mxCell id="GKxMql-4dVrDTyN0ciHh-16" style="edgeStyle=orthogonalEdgeStyle;rounded=0;orthogonalLoop=1;jettySize=auto;html=1;entryX=0.5;entryY=1;entryDx=0;entryDy=0;endArrow=baseDash;endFill=0;strokeColor=#000000;" edge="1" parent="GKxMql-4dVrDTyN0ciHh-18" source="GKxMql-4dVrDTyN0ciHh-1" target="GKxMql-4dVrDTyN0ciHh-13">
          <mxGeometry relative="1" as="geometry" />
        </mxCell>
        <mxCell id="GKxMql-4dVrDTyN0ciHh-1" value="" style="verticalLabelPosition=bottom;aspect=fixed;html=1;shape=mxgraph.salesforce.iot2;" vertex="1" parent="GKxMql-4dVrDTyN0ciHh-18">
          <mxGeometry y="150" width="104" height="104" as="geometry" />
        </mxCell>
        <mxCell id="GKxMql-4dVrDTyN0ciHh-12" value="&lt;font color=&quot;#000000&quot;&gt;Soil Moisture&lt;/font&gt;&lt;div&gt;&lt;font color=&quot;#000000&quot;&gt;Humidity&lt;/font&gt;&lt;/div&gt;&lt;div&gt;&lt;font color=&quot;#000000&quot;&gt;Light (Lux)&lt;/font&gt;&lt;/div&gt;&lt;div&gt;&lt;font color=&quot;#000000&quot;&gt;Rain Level&lt;/font&gt;&lt;/div&gt;&lt;div&gt;&lt;font color=&quot;#000000&quot;&gt;Temperature&lt;/font&gt;&lt;/div&gt;" style="text;html=1;align=center;verticalAlign=middle;resizable=0;points=[];autosize=1;strokeColor=none;fillColor=none;" vertex="1" parent="GKxMql-4dVrDTyN0ciHh-18">
          <mxGeometry x="8.5" y="397" width="87" height="84" as="geometry" />
        </mxCell>
        <mxCell id="GKxMql-4dVrDTyN0ciHh-13" value="" style="shape=image;verticalLabelPosition=bottom;labelBackgroundColor=default;verticalAlign=top;aspect=fixed;imageAspect=0;image=data:image/png,iVBORw0KGgoAAAANSUhEUgAAAgAAAAIACAYAAAD0eNT6AAAABHNCSVQICAgIfAhkiAAAAAlwSFlzAAAOxAAADsQBlSsOGwAAABl0RVh0U29mdHdhcmUAd3d3Lmlua3NjYXBlLm9yZ5vuPBoAACAASURBVHic7J13uB1V1f8/N71BEgKh995FepMiCAqIqOhrQ2yIvipYsYMVkSYgiF1QBFEUQZSqvBTp0nsLRUNJQgLpyb3n98e695fL9ZZzzlp7z8w538/zrIcAmZnv3mdmz569VwEhhBBCCCGEEEIIIYQQQgghhBBCCCGEEEIIIYQQQgghhBBCCCGEEEIIIYQQQgghhBBCCCGEEEIIIYQQQgghhBBCCCGEEEIIIYQQQgghhBBCCCGEEEIIIYQQQgghhBBCCCGEEEIIIYQQQgghhBBCCCGEEEIIIYQQQrQTWwCnAPcCc7rtHuAkYPMCdQkhhBAiAWOB04ClQG0AWwqcCowpSKMQQgghAhkF/IWBX/x97Qo0CRBCCCEqz7nU//LvsV8VIVQIIYQQMXyExl/+PfbBAvQKIYQQwsmWwHyanwAsALbJrloIIYQQTTMBeJDmX/499giwfGbtQgghhGiS8/C//Hvsd5m1CyGEEKVjSyyc7n5gbrfdh4XPbVGgrt58griXf48dmbUFA1OF/hdCCNFCjAZ+BHQyeBz9GVjYXVF49/0H8wfYOmM7+lKV/hdCCNFCjAb+Qf0vy6sp5iU0nph9/4HsfmBcttYsoyr9L4QQosU4m8ZflqcXoPNXTehs1H6SqzG9qEr/CyGEaCG2YvBl58GWozfLqPOdTWhs1t6dqU1Qnf4XQgjRYpxO8y/KkzNp3AAr6pNrAvAKsGGWllWj/4UQQrQgD9D8C+ieDPpGAXc4NDZrNwMjMrSv7P0vhBCiRZlL8y+gORn0neDQ57VvZmhf2ftfCCFEi/IKzb+AZifWtjuDl/dNbZ3AnonbWOb+F0II0cKUdQl6EvCUQ1uUPQ1MTtjOsva/EEKIhAwrWgBwlePYK8NU/Dc/AtZKeP56WRP4ccLzl7X/hRBCtDhb0twy+xJg00SaDm9CT2p7T6K2lrH/hRBCtAln0vgL6AeJtKxH3pC/em02sE6iNpep/4UQQrQRo4BrqP/lcyUwMoGOEcBNDegYyu7Ht8fe164Hhidod1n6XwghRBsyCvghgy9HL8G+PFO9fL4+yLUbtYXAa7AKegsCz/ulRG0vQ/8LIYRoY7bASs/eh4WovQLci2WdS5l6dhtgEXEv6qN7nfuzgeddDGwb3vplFNX/QgghRHZGYyFtUS/pK4COXufvAC4LPP/9wJjgPhBCCCHajhOJezm/AKzazzWmAs8FXuc7Ya0XQggh2pBdiMv21wUcNMi13tj9dyKu1Qns5m69EEII0YaMBx4h7qv8tDqu2UzI3UD2GDCh6dYLIYQQbcrZxL2M7wPG1nHNMcDdgdc9venWCyGEEG3IvsQtxy8Atmrg2psD84Ou3QXs13DrhRBCiDZkMvAscV/h/9uEhqMCr/8UsHwTGoQQQoi24lfEvXyv4tUhf/XSAVweqCNlwSAhhBCi8uxN3NL/bHwVA9cAXgrS0gXs49Ai8rAl5ix6PzC32+7Dki9tkeH6W2F+Iw8C84ibgDZr87B02afT2DaaEEI0xHjgceIGr8MCNH0oUM8T3W0U5WM0VmK6k4F/v6XAGVha5hTXP3uI6xdtncBZ3VqFECKU04kbrC4J1PWXQF0nBuoSMYwG/kH9v+HVxE4CGr1+0fb34PYLIdqcnYhL+PMisEqgtlWBmUHaOrHkRqI8NBNuGhne+aMmrl+0/TCw/UKINmY0tucaNTi9I4HGdwfquwd9QZWFrWhu2X0pMcWXmr1+0baUPD4RQogW59vEDUy/TajzwkCdxybUKerHs+10csHXL9pODWi/EKKN2QoroRsxIP0HmJJQ64rA9CCti9AXVBl4gOZ/w3sCrh+58pXb7gtovxCiTRkO3EbcgHRIBs1vDtR7C9YHojjm0vzvNyfg+q84rl+0vRLQfiFEm/J54gajX2TUfU6g7k9n1C3+G88LeHbA9V92XL9oi5gACSHakDXxfX31tmex9MG5mIil943QPg9YO6N28WqK3gK4z3H9ou3egPYLIQZgWNECEnI6MUlxasAHsIx9uZgDHBF0rnHASUHnEo1zlePYKwu+ftFcUbQAIUT12I+4r5CfZ9bem8itgDdl1i6MLWku/8QSYNOA62/e5PWLtqj2CyHaiNHAw8QMQtPJu/TflxWA5/rR1Yw9CozJK190cyaN/14/CLx+FUMBFQIohGiYbxA3CL0ts/b+eCdx7flaZu3CGAVcQ/2/05XAyMDrj+w+Z9Ev9XrtiuD2CyHagA2ABcQMQpG5/r38iZg2zQfWy6xdGKOw9LaDLccvwb78U7z8Rnafe8kg1y/almBf/nr5CyEa5jJiBqLZwOqZtQ/GasSVDf5bZu3i1WyBveTuw0IEX8G83U8mJvXvUGyKOYXeg93nRb/0ZwN3Y0WstOcvhGiKtxE3KH04s/Z6OJK49h2cWbsQQgiRhHHANGJejtcDHVnV18cw4EZi2vgUMSGSQgghRKF8n5gX4xJg68zaG2EL4uoafCezdiGEECKUjYh7KX4vs/ZmOImYti4C1s+sXQghhAjjj7TXsvg44Eli2nxhZu1CCCFECDsDXcS8DN+cWbuHQ4hpcw3YNbN2IYQQwkUHcU5xf8qsPYJLiGn7TZTT6VEIIYTol0OJeQHOBdbKrD2CdbBKfxF98Na80oUQQojmGIXlto94+X0ls/ZIjiWmDx7H+lQIIYQoNUcT8+J7CnOqqypjiXMI/GRm7UIIIURDTAJmEPPSOySz9hREbYW8CEzMrF0IIYSom6ikP9fkFp6QfxDTJ8fnFi6EEELUwxpYRTvvi24psGVm7SnZnJgqbwuAtTNrF0IIIYbkXGK+dM/ILTwDZxHTN+fmFi6EEEIMxqYMXku9XpsFrJBZew6mEFMyeCmwSWbtQgghxICcT8wX7udyC8/IF4npo1/nFi6EECIvVckAtylwH1YS18O/gQ2xve5WZAzwCLCm8zydWOXBh9yKRCqWA1YDVgKmAqv2+fMEYDJ2T4zt/jPAyO7/15tO4OXuPy8AFnb/+eXu/zcLi7yZ2Y+9CDwHTMcmj0KIilCVCcAFwDsDznM4cE7AecrMB4GfB5znN8D7As4jmmM0sAFW7bLHNsScNKdiL/YysQjLq/EkMK2XPQk8gU0UhBAlogoTgKiv/3uBbbAvmlZmOHA3FhngoRPYDFtREOkYD7wW2BrYmFe/6L33fJl4Abin2+7t/uf92MRBCCH65RfE7Gu/KbfwAjmQmD77cW7hLc4I7EX/YeCn2EQtInyzqrYEmwScD3wa2BHbohBCCFbHvhC8A83/5RZeAq7B328Lsf1k0RxTgLcDJwPXY4Wnin7plt3mAdcC3wYOYJnvghCizTiBmEFlt9zCS8DuxPTdd3ILrzCjgD2B7wK3YdsoRb9Qq26d2BbgacAbMYdGIUSLszwxce1X5xZeIv6Ov/9mYR7non/WA44ALgRmU/wLs9VtAXAVcAywbR2/jxCignyamAFjj9zCS8SexPShKgUuYxjwOuCHwDMU/0Jsd3u8+7fYB3OAFUJUnA7M+9w7OFybWTdYjYFTsGXLl7vtXmwf2OuZ3wzX4e/HB6hGxEhKtsWWof9N8S89Wf82E0tlfRDmcCmEqCD7ETMg7J1R82isxsBg6YqXYi+RURl17TOInrL2ZVnYHDgO+8os+uUma8xmYJOBfWitcEohWp4/4x8Ars+odyxweQPa/kZeZ6YbG9A2kP0ho94iWRdzfHyK4l9ishh7BvgWsA5CiFKzNjFFf/bNpLcDy1TYqL7zybesvn8T+vraEiwssxUZjn0pXkjMvScrp3ViDoSHkncVTghRJ1/H/6DflFHvsQ6dX8uo81aHzh77Yka9OVgd8ybX13772Sws0dUWCCFKQZTz39sz6X0b0OXQ2QUckknrOx06e+yBTFpTMhx4C/BXFKcvs2fwaixTaLs7ugpRKDvjf6CfJE840MbAnAC9r5AnOmAEMV+622XQmoJRwGFYhcOiXzqyctojwFEo2ZAQhXAW/of46Aw6l8O+hqMGnoeBiRl0fz5A62kZdEYyARvUn6X4F4ysGvY8Fv0xBSFamDIteY3Aaoqv6DjHPKxG+stD/UUHHcDFwJuDz3sx8FZsAErFZCyO3fOF8wLWx2WvqjgVe/F/HJhUsJYUdGEldl8EnsNeWi90//O57v8+F3smaliWQrBnoxPLqLew+7+NYFm2x7EsKzU8EatWOKXbVgRW6vXvUzDP+tUo11gSxTysGNn3sQmkECIRe+Kfuf8sg85jA3QOZF/NoP+cAJ1lrq2wDpYZbj7Ff0l6bQnwKHAZllzqSCwfw5qUK+vdaKyM8RuwtMjHY1Eut2MTjaL70WsLsJWvVaI6TAjxak7F/6DumFjjG0gbJtZJ+rLFuwXo/H5ijc0wApucLaT4F0Yz9h8s/8VXsNWljWmN0rgjgE2Bd2D5FS7B/HSK7u9mbB5wIr5VSiFEP3izrd2bWN/6xBQnGspmYQVmUnK/U+NDifU1ykgsUVHRL4h67WWsUNP3sG2fNeO7pPRMxPJTfBPriyqVSn4FK1esUsVCBLA5/ocyZYz6KGLi6Ou1W0j79fflAI0bJ9TXKMdT/EthqBfGJcAnsHtdqWn/mxFYhMlRwO8wf4aif7ehbDaWR2J0gv4Qom34JL4HsYu0aT5Pcuprxk5I2J718OUvqAEfTaivETaifNn7lmKTuG9hlQNbYSk/N8OA7bHEYDdRvt+4tz1GvnweQrQcF+J7AFNm/tsP/8uyGesCDkjYrtud+n6TUFsjnELxL4AatnXzSywJ1QpJW9yeTAH+B3NifZHif+/+7Bpgq1QdIESr8h98D16q5f9VsbCqogaU50jnefxVp7anE+lqlHsp7veZzbLys8otn4/hmDPraRT7fPZnndg9sXKy1gvRQqyP/6HbNoGuYVjhkKIHlCtIs2e8Y4C2tRPoapTcYWZzgF9jL33t/RbPSOCN2OpLDifdeu0lLAeF/D2EGISe5DfN2gzSPGRfcuqKtC8kaN9wYKZT10EJdDXKEtL3fydWO+AQliXJEeVjNPYbXUZ56jxcj4VBCiH6weuR/qcEmnYmz4ulXltMmhwHlzh1pZiYNEpE8aiBbDoWqrduttaIKFbDPPSfpBzP7/fQipEQ/8Vv8D1cXw/WMwl4wqkphT1FfNzxN52afhmspxl+Rmw/dwKXY1+SIzK2Q6RhOOZMezHFT+rvJX2yMiEqxS34Hqro8JvznXp620JiM9OdF9zWtzv13Bispxl2IqZvX8LyCehrv3VZG4saeZniJgGdwA+AcYnbKkQleBTfAxVZStf7Quxrn8QSm0SeM3LCs5VTy4OBWjycR/Nt6Kn81ooFg0T/LIc9lxHlsT3PzmtTN1SIsuON6Y0Kt1kRC7uLesAvxSqkdWB+ClHnfQGrdBfBGk4t04N0eJlE43kNHsOSGWlftn0ZCbwPuItiJgGLsBLdihQQbcsifA9R1ADuTUbU257h1bXEJwPTAs//26A2j3PqWBCkI4LJ1FcP4E4soUyZqumJYunACjAVNRG4Blg9eSuF6EMZangvxpcqdSSWJtTDwZiTUARLsdLGfffHdwKuIy4t7NuBi5znGIVNwJplIVY/vkzsjcVf78Gyqm0vYoPsL4CrsUG3VVgJS4O9OjbpXAlr95ReNg5Yvvvvj2bZ/vOE7n/O7f7nfJbdD3OwCd7MXjYD68uZwL+xSe2L4S0qjg7suToO2CzztWdhpZS9z7QQlcIbi778f5+yISYTu/T/pUGu9ZXA60zHKqp52+7R8ILz+qmZhP/+KAOrYSmpPwOcjm0v3Uc5KujNxbzbL+3W9hmsbPaqSXoiD8OA95A2xHQg+wnKNSHaCK8jjjdV7pnO6/e2vzP40vIw4MrA653ubLvXB+Bx5/XFqxkBbAN8EDgVW7WYQfEv+WbtRWzF5dTuNm1DtUIrRwAfJvYDoR67DVgrQ/uEKBxvLndPWdptiasyVm/e/sj6AkuxQbVZvGWY73JcW9gS/G5YwppLKVcq21Q2F7gBS4xzENUonDQe2xbImXZ6BraSIkRLcxO+B6XZh2QY/hwEPdYJ7NvAtfcjLlXpTTTvRfwm57Wvb/K67coY7H49Bbibcpe4zWVLsYnkydgzVOaojLWwQj85++Y4FCUgWpgr8D0kRzR53SOc1+1tP2ji+qcHXv8jTVwfzFnOc93LmrxuO7Eudq9diDnWFf3CLbvNx4pwHUN5c+jvhU3gcvXJJShPhWhRfozv4Ti+iWsuhzmwRTycj9BcVq/xWCx6hIYXutvUKCc6r3tmE9dsB7bA0iw/SPEv1KrbA8A3iE34FcEIrBbGfPL1w/pZWiZERj6D78G4vIlrHuu8Zo91Ars3cf0ediFuGfirTVz/Guc1P9nENVuVdbHscndQ/EuzVe1+bEm8TCsD65GvbPgMfOONEKXjAHwPxUway2cwmThnqxObavGrOTVIy2wac6gahn9Jut2dlKYAR5N3OVhmdjc24SqDE2EHcBh5IjYWAu/K0ywh0rM+/odigwaud0LA9WrY0n9EEpxxxG0FNLIdsmnA9dZppsEtwLbY1tU8in8RtrstxPwr9qH4xGarAL8nfZs7gc9lapMQSRmOv2Lex+q81qrEDdpvarrF/81+QZrmUn9ehE85rzWf9vJOnoLt+RaRHEZWnz2M5dbvnYa7CA7FMvulbu9PicssKkRhePdN/1LndaK+/i90tHUgLgrS9t06r3e58zq3OtpaJdYDTqMcWfdk9dlCLFxvk35+z1ysjaX+Tt3Wv2AOxUJUlpPxPQTzGdoTfwz+yoM14BUsg140a3af26vveYaOpZ6Af9XlBHeLy8222EtEsfrVtU4swdI+FMMwzE/BW/BsKLsef1pwIQrjQPwPwbuHuMZhAdeoAZ/1N3dAvhCkMUdf7O9vbik5EH9yKln57EZit+0aYXtseyJl++5gWfErISrF8sASfA/ANUNc45/O89eAh0i75zaSmIFiqAx9/+c8/yJab9lxN/z9Iiu/3YSlIM7NBOCCJvQ2Yvfgr40iRCF4v7q6sP3a/niN89w99ua45g7IW4K0bjnA+TfC+spz7lZKAbwL/nwIsurZDVhGv9wcgZVAT9WuJ7CcFEIMSZkqc10D7OQ4vgP4NP0npxlqSbwe/oGl5EzNxdiX6B7O87yb/ksTfxp/uNRQqy1VYGssj0MjNRzKygvAtG57HsuN0WMzum1O999dhPnMgDk2gn2dgvnR9PiPTMSWlFfEvOp7bGUs/HNdYKX4pmRjV6x65xXY1ts9ma77EyxD5IWk+VpfF7gWeD0WXixEJdgM/+x3Af3XIY+Is98ttrmDskuA3kf6Oe8qxKQuLdK72stULIa/as5987EysT/Dkg8diKXHLXIrZny3hgOxieXPMY250uNG2VLgR+TdQ1+dtL4mz6LUwaJiRKRR/X6fc24ccM4rErR1KCLSi/YdALzRFjWqG/43CnPgnE3xL5yhbD4WQnY8FlO+MZYvoyoMxzQfirXhOvKW0m3WXsImMrli60cBZydsz5NYdJEQleBo/Df9Al69BxZR9e91aZo7KHs2qbW3fbDX+TbAH/pXAz6RpLVpOYD0XtgemwH8EauLsROtmdxlFLAz1sY/YdsTRff7QPYQ8MY03dAvRxFXHryvPUL/q6JClI6V8UcD1LDBtIdfOM/1MMWkGO0AHm1Cb2/7Sa/z/dl5rhrmvFSlUKOp5K3fXq91ArcD38Ni1FvxhT8Uw7BcC8dgDnmpXoAeuxC7h3LwFtKllr6H4rMjClEXlxJz0/fEqd/iPE9/jnS5+OoguuqxG7vP4y241GMXJ2xrJB3A+ynXV+YC7Mv3vVTbeS4VKwHvw+6xiJWqKJvRrSsHOwDPJWrHncCkTO0Qomn2IuaGfxarFPaC8zyvSdvcQdluEF312H+wmf9/nOfpsSK2QhplXcxno+gXRw1zLrsKS7ykTG31Mw7zH7iU9Fn06rVrgQ0TtrmHdYEHErXhRpZFfAhRWm4k5oY/H/8AElHxr1kmDKKrHpsP/M55jh67LnFbvXQAH6ccFfpuAT6MvrgimIz58dxK8b/rXOCjaZsL2IfLDYnacCnVcigVbUjUknWEFbk/O2YQXbntDYnb6mElYnwcPDYHCy/cJnFb25nNML+JGRT7W19O+ox740i3kvXjxNqFcNEB/IviX3o1inWeWXkQXTmtzKF/byLdvmk9didwOEMXoxJxjMP6/C6K+93/g5XxTskozKE5hf5PJ9YuhIu3UvyLr4YV8iiKnQfRldOKyJ0+FGOwr8GivMdvwPqliAgRsYzdsGVtb3rrZqwL+5pOOfkbDpyTQHsnNsYKUVrKkKP9w8lbOTBHDqIrl12evJWNsx7FfP0twrLdbZ6+iaJBtgR+STFOg3dg6ZFTMRzLABmtez72kSFEKdmE4r2Af5u8lQPz+0F05bCF5PF8boQ3ArPI2w9LsHwCSq1aftbCvsoj8ok0YjNJuyXQAZyZQPfzqHiQKDHHU+xLcA7F7O+OB15pQm+kfSN5K+unA0sak3PJvxNLBrNRhvaJWNYhf82HLmxbaliiNnXgT2zWn92HwgNFSRmHVTkr8kXYO6VuLj7q0Bthj1NsCGRvJhGXIKpe+yOwaY7GiaRshiUXynnvXEy6vA/DsVXJaM1/Qv4soqTsTzFOPj32MHnDAUdjdb2Lam8nlqK2DKxP3jz+d1FMnXiRltdjKXFz3UcPkG5pfSRWmjxa8+cS6RXCzfco7oWY++H4csJ21GPfTt/EutgR26PM0eaZWFGWVkqSMgmbyP0vcAYWV34PtrozC/OvWdT958e7/98VwOlYUqV9aK0MhsOwrIy57qkZpCsjPgr4a7DepZQ734doY0YA11PcS3EBVqktNbtQbC70/8P6umjeTp668p3YC68VXnQjsAH8BCx3Q8T+91Iss2FP4aIy3BteJmMOdTn8SeYBhyRqx3jiMwY+j0oIi5KyBvAixb0cp5P24ViLYpPavACsnrB99ZKyPGpvewTYI1ObUrI59oKeTvo+m4k516X6ss3JLsD9pO+zLuC4RG1YAStfHKn3FmwbUojS8Sbyevb2tbuxiUg0awH3FtiuJRS//NeBfY2nbusi4FhsGbWqDMO+LG+juHvmFuBgqu08NhqLdskRbnwqafpqffxFz/raWQl0ChHCRyhu0KthD1tkZbydyfP1NpB1AR8KbE8zDCdNiFNfuxXzDK8qHcC7sNCtIp+B3nYP8A6qPRHYArid9H31U9L4mWxPfCGsQxPoFCKEr1HsoLcA+Dq2D9csozCHv6Lrn3/J0YYIRmCJdlK2sQs4jWp/9W8MXE2x98pgdh32Iq0qI7Cl+tQrjBeQJqrobcRunb0IrJZApxAh/JDiB73pwMdobCIwAStxWmSoX4+d1oDuFKQseNJjT1Htvf6xwEnkz27XjC3GnBDHJOmJPOxM+mfzUtL00eeCdV5JtVd2RAszDDiP4ge9Gpa17wLsxb4jVqJ2VLdN7f5vR2KZ5eaWQG8N+DXpspbVwzhsgEnZxvOxcLiqsjHmd1L0vdKo3U+1ayZMxp7VlH10BWmyjP4kWKcqB4rS0gGcTPEDXtXsDIp9+aeIY+5tS7DUwVXmMMozWWzGXgbeHd4reTmCtA6CVxG/EjCS2PDAhcDWwRqFCOUYis0WWBVLGZJULyOBP5Oujf/GQryqSgf2GxV9r0TZ90J7Jz+7Av8hXf/8mXifgFWDNd9PeVKDC9Evh1ONfdKibCkWQVEkqXKZ99j12OBXVYZjcfZF3yvR9kuqnURoJeDvpOufPxAfHbAXsePhScH6hAjnjRSbLKis9gLliPNPGep3JnlrNkQzAriI4u+VVHYh1U61PBI4m3T981PiHe4inQKXAtsF6xMinDUoNm1w2ez/KEeGv1RJfjqBz2RsRwo6gJ9R/L2S2s6l+l7lnyddpspTEuj9XaC+u6n2JFu0CT0xvTnrx5fNemLfy/DAfp40bVwA/E/GdqTiBIq/X3JZWYpNeXgr8Yl3euzoYK3LAY8F6vtisD4hkrEf8CTFD3q57XHKU9L37aSZiKWstpaTj1L8/ZLbPhjSc8WSqlplJzbBiGQ7LEdDhL6FwCbB+oRIxlhsNaDojHs5bDH21T8houMC2Jk0Vf2exHKgV50tyVP1sGy2gNYILdsQmEZ8/8wDdgjW+vVAfddS/a0c0WZsAFxO8YNfKvs7sGlYb/lZlzRfSA/RGiVLlwMeJv19MRNzLvws5iS7MZboZiSWj2Fy9397U/ff+SMwK4OuB/Cl0i4La5Hmd3wRG7OiGE6sb9SHA7UJkY23kKfwRy67FTgotIf8TCLNoHgPsHLGdqQkpdPffOAcYG+aS/g0DNtCOpe0KxRnN6GtjKxCmmqeDwATA3WuSdzkbhYwJVCbEFnZjXIXVxnKbsBe/GVbihsG/IX49t4OrJixHSnZlTSJq14BjsfST0exMuakmCIrYSewU6DWIpkM3Ex8H11CbNbO9wZqOz1QlxCFsAeWjSvKSSalLQYuJrYccTTHEt/u24j9EiqSEaTJ738RabdG1sbuvWjdd1Dt/AC9mYjdq9F99JVgnVH5JpZQ7QqQQvx/JmO5vyPzaEfZ/Vi648gvuxTsS3w51XtoraXGTxHbP69gX3W5OJz41YCPZdSfmknAv4jtn07MfyOKVYjbCrg6UJcQpWBT4BvYZKCIlYHFmMPOsVQn5GYdLDQvsh8eodqpffsyBqtVENU/T1KM4+cWwNNN6B3InsYcEluFqcCDxD4Ls4D1AjUeEajtwEBdQpSKCdjs+/uYw90C4l/4C4Bbuq+xP9Xzjh4L3EVsnzxJa3j79+ZI4vrnPorN8Lgm5qQW1Z5W8ypfi/gQwTuIqx7YQZwP1GPA6CBdIhNlcx6rCsOw/dCNu20T7Ot3eezFvRy2DNgTiz8XmI0t1c7t/ueTWDjbw9hX7lOYU1hVOQP4yyTvwQAAIABJREFUROD5XsAq+j0eeM6iGYH91usGnOtJzJFwesC5PKwO3Ig9D14ex56lpQHnKgsbYv2zUuA5TyMuW+BGmD9KxKTic1hpdiFEG7EfsR7t87EEQq3Gm4npn5ewF0tZ2ASYQ0zbDsisPQfbE5s2uIvYfvpykK6XsA8fIUSbsBL2FRo1uKVIg1oW/kBMH5Wxfw4lpm3n5xaeieh02M8Tlw9jJHFbOccFaRJClJwOLEY5alCrUf2qfgMxmZhU1D/LLbwBzsHfvvm0TrhnX75A7LPyV+K2cV8fpGkOsEKQJiFEiflfYge0M/PKz8pH8PfPDModDjkVWwb2tvPwzLpzcjaxz8yRgdqiknd9N1CTEKKErIM5M0YNZDfSWmFgffk9/j6KLhObgoiv3N9mV52PkcB1xD0384gLDdyAmFWquZQ/X4kQwsGVxA1i04HV8srPSgdW2MXTRzMoT4XHwRiPv63P0doRSqsAzxL3/FxDXH+dHKTppCA9QoiS8QHiBq/FwO555Wdna/z99J3sqpvnBPzt3Sy76rzsDCwi7jl6X5Cu5Ylx6l1AsTkqhBAJWBH/F15va6UUsAPxcfz9tHF21c2zOf72HpFddX4iU0LPIG7ZPSpZ1SlBeoQQJeF3xA1arbzX25vT8fXTnfklu7kPvTzq4ULinqfzgjSNxJIyefW8jPICCNEyHEjcYDWN9hkcvP4SJ+aX7OY0fG2+LL/kQphMbE2F/YN0HR6k5wtBeoQQBTIKS1scMSh0AntmVV8s0/D110HZFft5K742P5ZfcmHsTlwFzUeJiaYZTkwxo2eD9AghCuTzxH2lfDuz9iIZhj8D3PrZVfvZGF+bl+SXXCjfI+75igoXfXeQnsOC9AghCmAqVswoYjC4FdtjbBeWw9dfC7GvsaoxEn8Z7XHZVRfHKOB2Yp6xlzBnXS/DsEJBXj330NphnUK0ND8lZmBahHmItxOr4euzf+eXHMbz+NrebslktiAuNPBHQZreFqRn3yA9QoiMvIa4/cmvZ9ZeBrxL4Q/llxzGY/jaXsWtDy/fJOZZWwpsFaCnA39ERw24PECLECIzVxEzIN1LezoDbYmv3+7LLzkMb4W5dlstAhhNXGW+qJfuBwO0dNGeEzohmmJD4PvYHtx8LL/2I1gxkddm0rAbMQNRJ7BLJs1lw7sC8Ex+yWF4M8q16wtjJ+JKB78uQM9o4D8BWtrJ+VeIphiOpVIdzIGqC/g16XPDRxUtOS2xzjKzFr6+eyW/5DDm42t7K9eHGIqziHn2/hGk5ysBWqbTXg7AQjTEcOBi6n+g7sC8zFPwhgZ0DGbP07r13ethHP4+rGLCpCn42tyFfXm2K5OJS7m9d5CeiOqfbw7QIkRL0owD0IWJtNzUhJb+7COJ9FWJOfj6cM/siv3sg6/NM/JLLh0RNSRqWKntCLwprWvAJUFahGgpVscqaDXzUO0RrOWgJnX0tbuoZgx7NPfi68fP5Jfs5nP42lzF+gfRDMdi6COexYgUwevhjwhaCqwRoEWIluI7NP9Q/TpYy80OLb1tr2BdVeX3+Pqxil9Nf8HX5vPzSy4l3pWUHrshSM9lAVq+GqRFiJagA3iC5h+o6YFaojz/LwrUVHW+ga8vF2B12qvCRPwJbb6WXXV5acQvaDDbOUDLwQE6HkeZAYX4/+yM/6GKSpsaMdgsBTYN0tMKHIC/T9+VXXXzvA9/e/fLrrq8bEZMWOAfArSMwLJTerVsH6BFiJbgDPwPVESSnQ2JGWjOCdDSSkzGvNo9fXpzdtXN8098be3C+kws4zz8z2UnsEGAlu8GaKliiWshwhkOPIfvYXouSMuPnDpq2Nf/RkF6Wom78PftHtlVN85e+Nt5e3bV5WdDrEKit29/GKBlXfwfCk+jbQAhQuLtfxugYwUs26BXy08CtLQiHifPHrsyu+rGiUgd/Y3sqqvBL/H37TxiKgVeHaAlwidBiErzK/wP0tsCdBwToGMhsHaAllYkws+jhk0Yy8p+xLRxu9zCK8K6+Ess14AvBGh5Z4COHwToEKKyjMRqd3seojnAWKeODqzOgPeB/qlTR6sT0cd3U87cCsOAf+Fv3yO5hVeMX+Hv48fwL7+PwZ/g6j/YfSNEW7I3/of5lyXR0YV5K4uBOQ5/P9eAw/PKrosPENM2xYgPzhb4HUprxPiT/DZAx+4BOoSoJKfif4AiloTPD9DxlwAdrc5q+OPja1gY1vjM2gdjLObU5W3XImCVzNqryOX4+/o3AToicgKcHKBDiEriXRJ+AYvL9TCF5lMQ9zZl/auPiK+mGladrSx8jZg2KXy0PvbF39cLMMdfD6OB2U4d9zs1CFFJNsH/EJ8eoOMzATruRiE99bIlMbkWXqEcX8tT8e8F17A+2Sqz9ioT4W/xyQAd5wboWDtAhxCVwlsspUbMPl5EsZH3B+hoJ36Hv89rWM34ojmbmLZEhLK2E4fj7/N/BeiIyHL50QAdQlSK6/A9NDPxL/9HrELMJi4NcbuwMTHhXEuw37AoNiUmOc1ilDyqUcbijyCq4U/ZPQqY5dRwsVODEJViefwD53kBOrxFamrEbEO0I2fi7/sa8Ofcwntx6SC6GrEzcgtvEc7C3/cRRZcucGqYi/kTCNEWRCybvTNAxwMBOl4ToKMdWQm/A1WP7Z1ZO9j2U4T2l4GVM2tvFbbC3//3Buh4f4AOORGLtuEkfA/LYmCSU0PE4HGTU0O782ViXqL/Im9ClQ7gtiDtX8youxW5Hf9vsLlTwyr4cxN836lBiMrgfWivCdDwLaeGGvChAB3tzFjgKWJepDnLBb8nSPOzyH/Ey0fx/w4RtRe8UQkqACXagklYxTzPw/LZAB0POTUsxL8KIWKWT2vAk1h61tSMAaYFaX5fBr2tzgr4HUofCNDhLXa1FFguQIcQpebN+AfObZwa1gvQIM/dGIYBdxLzQj06g95PB2nNvW3RylyG//dY36lhtwANr3dqEKL0nILvIZmJf+D8pFNDDXi3U4NYxl7EvFSnk3ZJfTzwXJDWfRLqbDfej//3+LhTw3BsbPJo+LpTgxClx7v//6cADX91aliAhTKKOLy/SY99KqHGqK//yxJqbEeWx5/O+5IAHRc7NVwRoEGI0jIG/36dd4AfA8xzarjIqUH8N1FJdR4lTVrmDuDhAH1LsYp2IpY/4/tdImLxP+/U8DLlLHUtRAg74h9At3Rq2C9Aw3ucGkT//BT/b1MjTV6AiAI0NeAnCbQJOAz/b7OvU8MuARqUV0S0LB/H93C8iP/r7jSnhk4siY2IZ2XsK6iML9lfBOh6BVg1gTZhz6S3yJS3NO9o/FsRn3BqEKK0/ArfwxGR9vVepwYl/0nLcfhftC/irxPRm5H4HbxqwLGBmsR/403OdGeAhuudGs4N0CDqRGE4ednOebw3WcYkYDPnOS53Hi8G5yTM097Divjvtd7siL92/HT8X5hicLzP5lbAROc5bnQe793iFA2gCUA+JuCv3OadAOyM/zf/m/N4MThzgRMCzrNH9z/XAN4OfBv4I3Ar8B+sgltXt83q/m+3Yg6e3+o+ZvXuc7wuQM/xWNtEOrzP5jBssufBOwHYFFtxEqKliEiUMdWp4dvO67+IJo05GIe/1Os04EHnOWpYlrhpznPMIE+WwnZnONbXnt/KmxZ4Jef1a/hrE4g60WCeD2/o01PAC85z7Oo8/lrsi1GkZT5WYtXD2vhXnMC+yNZ2nuN8LHW0SEsncJ3zHN4x4kVsu8fDVs7jRZ1oApCPTZ3H3+Y8fgT+fWHv8p6on1ZKiiK/kXx4n9Gd8DuQ3uM8Xn4AmdAEIB/er7F/OY/fGvND8PBP5/Giflqlr2vALUWLaCO8E4Dx+L/AvRMArQBkQhOAfHi97+93Hv9a5/ELgLuc5xD18wLweNEiAngU25cWebgD20Ly4C02dq/zeE0AMqEJQB4msMyjulkedB7vXVa7BUtjLPLxTNECAni6aAFtxhJsEuDBO1Z4JwBrolojWdAEIA+b4svgtxir9+7B+1C3ypJ0lfB+yZWBBUULaEOKjsV/EJuIeFjXebyoA00A8uB1AHwEK6LiwftQe78qROO0wsuzFSYxVcP7rG7tPH4RNmZ50AQgA5oA5GF95/EPOY9fA5jiPId3WU80jtdpswwsV7SANsT7rE4BVnOe41Hn8es4jxd1oAlAHtZyHu/d//c61cyjNRzSqsZGRQsIoBXaUDUew7/y4l0xnOY8XisAGdAEIA9rOI/3Lqd5tyDuRwmAcjMK/8SxDKyLtUXkoxPL4OjBG7Xk9Vlax3m8qANNAPLgHci9ntTrOY+/23m8aJx3Yqldq85w4B1Fi2hDvLH43i9w7wRAKwAZ0AQgD94VAG842DrO4+9zHi8aYwPgh0WLCORHaCsgN14/AO8LeFrB1xd1oAlAeqZgxV2apYZVavPgfZgecx4v6mcYVhO9leKgJwA/xxcKKxrD+8yu4zzeuwIwASssJBKiCUB61nQe/zwWVtMsHfiLuXgfZlE/H8XKNrcauwEfLlpEGzHNebz3o2Eu/gyQKzuPF6JwDsRXGtNbBGhl5/W78K1giPqZBMzEX061P5sDnIe9hLfHvq5GdttKwA7AR7DKfS8n0jCD1lrZKDPj8f9e3i/w253X39N5fSEK5wP4HoKLnNff0Xn955zXF/XzbeJfug8BHwTGNqBjHDZReDSBHm+9eVE/L+D7rbZ3Xv9vzuu/zXl9MQTaAkjPJOfxzzuP99YgmOY8XtTHJOCowPPNBz4HbAH8gsayCs4HfoaFgh2DbwuqL0ejVYBcPOk83uu87N0C8CYvE0OgCUB6VnAeP9N5/IrO46c5jxf18UHiMv89gq38nIwvhfQS4PvAXsStBC2PrYqJ9ExzHu8dO4oeu8QQaAKQnsnO419yHu/dx5vuPF4MzabAZ4PO9S/M4S4ydPMmzEcgKh305/DnphBD4520FT0B0ApAYjQBSI93BcA7AfA+RN6HWAzOW7BSy97c62Bf/vsDLwacqy/PAAcQsxKwBjap2CvgXGJgin4BF319MQSaAKTHuwIwy3l80Q+x6J+pwJnAH4kpmDMfc5pK8fLv4RngrcT4BEwFrgZOR/HeqSj6Bez1AdAWQGI0AUhP0SsA3ofI+xCLVzMF84R/HPg4cclxvkaejI03AccHnWsY8EmsL47D/6yIV1P0C9g7AfE6UAtROA/gC4XxVvK72Xn9vZ3Xb3cmANsC/wtcgn09pwj1G5GrQVibnkvQjoXAn7G+2haLZRfNsw++3+Ofzutv57z+7c7riyHIOWi0K6Odx891Hu/1LPduQVSBVTFHvDWwrIkTsK+PUbz6JTSeV1e2m8iyVbRh3f/ew+juc+R4iZ2Az9u/UeYC38S2MCIZDby523qYB8zm1dsOc1hWnbKr+997WMSrS+HOAxZ3n2Mu8BS2lfEgrZ/jwvsF7t2a8m4VqYpkYjQBSM9I5/GLnccXPQEpG8OxELk9gd2xr5Qq7zW+DFxQwHXPwSYeUaGLAzGedJOoF7GvzOuBa4FbsVK6rcI85/HesaPosUuIwvEulU51Xv8p5/VboSb9MGBfrCCNNzta2ey8wH5qlN8NoquK9jyWAOn1tIZ/1Nr4+mOa8/rrOK//pPP6QhTOLHwPgTeKwDsBWcV5/SKZAnwV/ySozPahsN5qnI8Ooqvq9iTwZartmLgKvj7w5gBZ1Xl9bxVUIQrnFXwPgXf5s+gJSBFMBX6AbV8U/SJJbdsF9Vkz7DSIrlaxV4BTqWao4gr42h4RRui5viKQROXxen17HWG8L8EqeWKPAb6Of9JVJSsyWYq30mSV7GUs1HJMSM/lwVsRMMIB2XP9V5zXF6JwuvA9BN448cXO63udGHOxC/6Qyypakb/PmEF0tao9RnUyGI7E11avE1/R1xdD0AqOLmJwvBOIWoiKdEzAwtGux0L5hEjJ+lgGwzMo/+qY99n1jh1FHy9E4SzENwuOCOPzXL/Mg9wGWIGaor8KizRtARRn91DuokZFbwEs77x+IyWsRRNoBSA93mUsrw9A0ddPxX5Y3PYWRQspmHULvHaZX3452BK4DXhD0UIGwPvx4E3k4/WXyJncqi3RBCA93oeo6GQcZZwAHAlcRjUjFKJ5TYHX3rrAa5eFFYC/AkcULaQfiv540ASg5GgCkJ6iX8BFT0Ci+RRwFpbRTxRbq+H1BV67TAwHzsZqGJSJolcAvNfXBCAxmgCkp+h0mEVPQCL5DHAacg7qzQHAuAKuOx7Yv4DrlpUOzDHw6KKF9KLoscO7AhBRdloMgiYA6Sm6IIb3+mVxAnw/cHLRIkrI8sD/FHDd95K+DkDV6ABOAd5TtJBuvBPDon0AWq0OSenQBCA9RS+jeZNplKFQzi7Aj4sWEUwXVojmxIBzHUPefACju6/poYa1/Y7uP7cKHVg9gZ2KFoI/e+HLzuO9EwBvMSMxBKoGmB7vBGDi0H9lUCLSeRbJ2sCfKJ8vQiPMBp4GngDuw6IXbsaq0YEt42/mOP9GwFHASY5zNMJn8Ucf3A98ofvPU7EKjTtgUR3rYb+7994vijHYPbsDVnq4KLzPrnfsUCXSkqMJQHpech7v/QL35tMucgVgOFbtzlsRsR46sZfSncCz2OA3A8vj0ENPbfkeXubV5WN7/9Y9depnM/QX7hX4JgAA3wJuwCYWKdkVS7fs5W+9/vwCcGm39WYYNgmYyLLVyg5gUq+/MxzbBulhFK/ethqD3cMrAmsA22B9ndqJdBXgN1jWwK7E1xqIoseO5ZzHawUgMZoApKfoL/Cir+/hs9gLJxWzgT9iZW3/SXFfHBcCn3aeYwzWlh2wCUwK1gIuImY15sI6/k4XNqnyTqL7MgG7r94JHMKrJxSRvA5zCjwl0fmHouixY2Xn8bOdx4shkA9Aeor+Aq/qBGAL4JuJzv0YcDj2lfYh4EqKXW68GXg04DyrYvkR1gg4V1/W6j63d1AHeBDzfyiKudiqywexe+AD2D2Rgu9QXIrqoicA3lLizzuPF0OgCUB6in4BeycgEQN+M5xN/L7/89hgvylwDuUKM4pyctwKy04X6YS2K7FZF88OOk8Ei4BfYffEB7DtiEjGYHkrisC7deYdu7zX1wRAVJ5P4MuH/Qvn9d/qvP5Nzus3wyEOvQPZOVjWtrIyEfMpiGrvAmyv3hPGOQr4Mv56Fr3tJcodPjgF+DXx99+BORvRzc0OvTXsOfRwkfP6H3BeX4jC+R98D8Elzuvv5Lz+dOf1G2UE8JBTc29bCHw4awua5zvEv3imAx+jsYnABCy17RMJ9BzXgI4i+Si2OhDV7vvIn73yBafmHZzXv8F5/Tc5ry9E4eyL7yH4p/P63optXeTNNPchp97eNgfYPaN2LxOx0MDol24NywdxAfZi3xGLER/VbT1heEdiznneCpID2fP4PcNzsifWb1HtPyyjdm8lwBr+PAKPOq+/rfP6QhTONvgegn87r9+BhdN4NOR0YrrHqbXHZlOOZCyNciRpXr5lsKqsxPRmV+K2Zu7IqHtzp9YIp1hvv6VwZhUiK6vhewi68GfUesCp4Y3O69fL3k6dPbYUS65TRYYB11P8yzrarqW6NRz2x+6piH7YLZPmA50673Vef6zz+l1UO/lXJVAUQHqm8+pkMo3SgYVgeXjSefyGzuPr5RNB5/kCFrJWRbqw8DRvCucyMQdrU61oIU1yOeYMGcEng84zFBs4j5/mPH515/FzKFeUTkuiCUB6asBTznN4065Ocx6/pfP4ephEzFf7NcCpAecpkkep5nL5QHwMcyisMidhqxheDubVmQtT4X1mvR8NGzuPf855vKgDTQDyMM15/DrO470P81bO4+vhAPyVD+dT7S/N3lxIvtz+KfkecH7RIgLoWZnxrOaBLWvn2FLzTgCmOY/3rhqmymYpeqEJQB68L+B1nMff7zx+c9LfK96YY7Av/6cDzlMWjgH+ULQIBxcQt3ReBp4ETg84z1sDzjEYw7Fn1sN9zuO9KwAPO48XojQcg88h5gLn9ddwXr9GWj+AUfhDz14iz9JqbkYBF1O8E1+j9kfylijOxWT83u2vkLZvNnbqq2FppT1c47z+p5zXF3WgFYA8POk8fiPn8T3V7Tyk3AbYGl/GOoBf4q9fXkYWY/4AVWrbHOAjwJKihSTgJSyrpIcJpPWr8T6rM/AnAPOOWY84jxd1oAlAHqY5j98Mf+VGb1jPa53HD0ZEvP6PAs5RRqZgpXOrtLoxEdNc5tTLHiLutZQ5KrZxHu8dK8bjjwLQBCADmgDkwesBPRr/jPoe5/Epy/Lu6Dz+bmKq6ZWNidhS6nZFC2mC7YGrqdbEpV4e6DYP3nt+MLy5Bu52Hr8RvpwPi/BHTok60AQgDzPwh7V4l/W8s/od8HvpD8TWzuO99RLKyGhs79/bN0WyDfAnWjOhy8XO41NtqY3En0LXO1Z4P1YeAzqd5xB1oAlAPrwPlXfP8C7n8WOB1zjPMRDeREfXh6goF2djueirzt7AmUWLSMANzuO99/xAbIu/dod3BcA7udHyfyY0AciHdwne+1DdhT+/9y7O4/tjEr5l4hpWq76V+AhweNEiAvkQFkPfSnjvuRVIUxbZu/w/D/8EYHvn8ZoAZEITgHx4VwC8E4ClwO3Oc6TwA1jbefzzmNd5q7AxMbHmZeMM8qWUzsFM/JE13nu/P7zP6M3YWNEsHfh9VjQByIQmAPnwzqrXxGKQPdzoPH5P4u+Zic7jW8lZaBjwU/zFn8rIOOBXtNaY84zz+GgHyeH4y197x4gN8Y9TdzqPF3XSSg9j2XkQX1x0B/7QIe/DvSLxHunehCgvhagoB0fgH8AH41Hgn9i92FOkamH3nx/s/n8poyl2wbY3WoVZzuOjnWp3xMJGPXjHiB2cxy/En4VQiFJyH77sWN92Xn8i5l3r0XCsU0Nf3ujU0yoRACtiS8rRGflmAScCmzSgZVOsDsGsBHpmdre1Ffgbvr7YN1jPN516luJfkTvNqcE7ARENoBWAvHgdAb1OeHPwxy/v7zy+L94ER1WtMd+X7xGbOGcJcDywHvB54KEGjn0Q+Fz3sScQm9FvhW5drYB3/PTe+33xFhm6F78/jXcFoNUceoX4/xyNb3Y8H/+yoXeGvhT/MmNv9nDq+WeglqLYEf/KTG97kNiQzW2wCUSUvk78L4oycCu+fvB67PdmJfz30MlODSOxMcqj4d1ODUKUlu3xD57eEJv9AzREPqRbOLU8HqilCIZj0RlRL9cr8C/j9sck4KpAnbdR/RXIafj6YNNALe9zaqnh35J4bYAGbxIhIUrLCKwSmOcBOdqpYQwW6+vRcJFTQ29WdWpZiiUpqiofI+6l+lfSZt0bg00wovQemVBraiYAXfjaPzVQz5+dWubijz75vFPDTFpnS0+Ifvk7vofk9wEa/urUsIC4EKZR2Evco6eKufLBlm2jHP/uJk1imb4sj9+ZtfeAX1WHwJ3xtX0xcT4Ay2PPpEfPpQE6rnRquDxAg2iAqi/BVRHvnvWe+H8374M2BjjIeY4eFuMPPdszQEcRHE+M498C4B34Mz3Ww8vAoVi4lpcqOwTu6Tz+EXwJd3pzCP6v94gxwevTcJvzeCFKjzfsrYbfgWrDAA1/dmroze+dWq4O1JKLnYhz/PtCZu0AX3To7W2dpK2Ml4pr8bX7/EAt3hW9GrC+U8MbAjQc6NQgROkpSyz+w04NC4lzNjvOqWUJ5ktQFYYBtxDzAr0ffzKlZhiFhZRGtOEOzBmyKqyOf9vqK0FaVsDK53q0PBig40SnhiW0ZunoUqMtgPzMwQZtD954X/D7EowG3h6gA/xLfyOAwyKEZOKjxIXBfYLYOP16WQx8Muhcr6VaGQIPxz9h8dbl6OFQ/KHBEX5Fb3Ae/09se0mIlscbi9+JOZB52MqpoQbc5NTQw3hsRcGjZRrxqVVTsBJxGfZ+m1l7f1xATFuq4hA4GqsB4GnrAuIiV25zaqkBmzs1rII/IuKrTg1CVIaIWPx3BeiIWMLdOkAHwDUBWj4epCUlPyfmhfkythRdNKtgq1oRbfppZu3N8En87bwiSEvEJN5bpRRs9c2roxUSQwlRFxGx+OcG6PiGU0MNW82I4AsBWqbjr0SWkl2Ic/z7bGbtg+GN/+6xTiy8rqysADxHeX67HwZo+VqADu8q0Eyq5QMihBuv5+6L+OOIN3FqqGHV+MY5dQCsS8zL8ecBWlIwHr/jZY8V5fg3ECOwOhcRbXuMPPkMmuEc/O3rBNYO0DKWmK0kbzbCcfiTm/3OqUGIyvEp/A/vfgE67g3Q8b4AHWDhfF4tXcDBQXoi+RExL8guypn3YC9i2lfDvmzLxtuIaVvU8n/EsvudAToODdDx4QAdQlSKiFj8iK/dzwbouCtAB5hfQ8Qg+zJ+x6ZI3ovfSarHfpNZeyOcT0wbu4APZtY+GJsQ5+dwaJCmfwVoOSpAx4UBOtYJ0CFE5XgU34PzEn7P9yn4PfBr2Begl9HACwFaasATwFoBmrwcgIXpRbRpDrBaXvkNsRo2+Ypo62Jiwl29rIO/6E+PPUdMpMo+AVoW4o+6GI/fl6mRMtVCtBRn4H+Q3xSg43cBOv4SoANinAF77DGKnQQciH+A7G2fySu/KSJWlHpsLjaBKop1sYlkVHuinP8uD9ByXoCOdwboqGoqaCHc7I3/ATonQEfEF0UXsFmAlvHEeFr32IvA7gG6GuUjxH3517ACPGVy/BuIEVhhoqh2L8WSHeVmJ2Lvw+nEOMtuQcx20p4BWv4QoOO1ATqEqCTDgP/ge4Dm4C8E0oF/O6JGXBz30QFaetsC4NPkyXw5Gfh1sP4uYI8M2qPYkzifhx47lzwhnsOxsMaIbbHeFrHfDvCrAC2P4y+7Ox5bofHqEKKtORP/A/3WAB1fCtCxkJgl9zFYtbTIAbgGXAe8JkDfQByCf0LXn5XZ8W+hHRnbAAAgAElEQVQgziO+H/4NvCWh5m2BGxPofhj/JB1sS2JxgJ5jArS8O0DHdwN0CFFpXof/QfpbgI4V8M/oa8BPArSAffFGf0XWsDjsX2NZ1CLowDI73pxAaw2YAUwN0pqTlTHtKfrkn1juee9XbA/bYGmVU91vrwvS+YsAPfOISbl8bYCWlJNxISrBMOBZ/IPM2gFaImLVF+MvLdrD2QF6BrNrscI8KzehbVPgy8RsnQxm721CW1l4P2n75hFs5WqTJrStAhwJXJ9Y45lNaOuPDYjxKYnIsbAx/snSwwE6hJOoGbTwcRqWGMjDN/GXCd4QC8vx7pWfg1VM8zIRyzCX2pO/C6uLcAvmbPcUtpS/tPv/L499NW2ArRzskkETWIz1OzNcJyW/J65q5GA8ha0M3ItFf8xgWXW5EVjdhLWALYEdsQlcap+QJ7FaGa8EnOs3wHuc5+jCXt6POc9zMv6IlG8Tk4ZYiMqzK/6Z/TPE5NO+OEDLUpr7KuuPbYH5AZqqZo9jE6CqMwl7ERbdn7ltHnFL3Jthz5RX0x8CtETl6ojaghOi8nQAT+N/qA4M0LJ7gI6owaaH9wRpqoq9TGsNkJsTl0mvKvb+kJ4z/hSkaZcALRHPopb/hejDN/E/WH8O0nJLgJYasTnrTwnSVHZbSrHJb1JxMDFfsVWw7wf1GcDrgzTdGKTnugAtXwnSIkTLsDb+anhLiMmrfZBTR4/dRVyZzw7iCuqU1bqADwX1Vxl5P3HlkMtqPyPOt2o4cVUW9w/Qswl+578llDudtRCFEZHi89QgLVFhbR8J0gPmtPWrIF1ls07MK73V+V/ShNuVwSJf/mB9FaEr6uv/tAAtFwVpEaLliCg5Ohcr8ONlvwAtNeB5zBEsiuFYxsGiB/tIW4zfw7tKHEZsmuQy2NnERhVMxtJYR2jbO0DPClg0g1fLGwK0CNGSjCAmk1xEpi+I2e+rYV8O0XyW1thTfgmbbLUbbwJmU3z/e20plro6mrOC9P0jSM9xAVqeIE86biEqywn4H7R/E1N2dLcALTVseTvCA7kvBxJXfrYIexDYKLxXqsMmWN6Jon+HZm0OMdU4+7ITcb4SewToGUfMasSXArQI0dKsT8we6fuD9FwdoKWGJWiJmJT0ZR3g70Eac9q5wIT47qgcY4nZW85tN2CJoaIZjSWlitB4eZCmiOJccv4Tok6uwv/A3U2MQ9JriFtqT5X5axiWmawKCYOewqIsxKs5GEtmVfTvM5TNxyr7pVrK/kaQzqXE5JIYCUwL0PP7AC1CtAX7EzMIHBykJ8rpbiGW1SwV6wEXUE4v8/lYfLi++gdmAnAiVr656N+rr3VhFQ7XSdV4bEskqgzxWUGaDg/Ss2+QHiHagrvwP3T3EvOlsjJxDlu3YF8VKdkBc34q+qVRwwb0M9DyZyOsjhXRWUTxv18NuAbYLmmL7Zm4LUjvS8BKAZo6sNoYXj0PIOc/IRriA8QMBu8I0vO5ID014FtBmoZiO2yvPeqrqhF7ATgJWDN5K1uXtbEMkFHhcI3YQiznxLapG9nN8YHao6ISDgzS874gPUK0DaMwb37vw/cwFl4YoefhAD01zMN5zwBN9bIyFjZ4I2kz0S3GHK8OJY3DY7syGquKeAVp8wd0Ys59nwGmZmmZsTtxfjYPErfCFlEYbFqgHiHaii8RMyhE1ZSP+iLoGRgiEwTVy2rAx4Dz8Vep68Jq0v8IeAuwXMZ2tCvLA4dgiXcexe/v8QTwWywL46oZ29HDZGIKgfVYRMpfsOX/iG2/TwTpEQmITFsp4ukZHLyOY49h9c+XDvUX6+BC7As3gvOBdwedq1lWBl6LORCuhS3Zr4R9tfT0+yJgJjALW45+BPOvuJ+YWu+ieZYDtgC2xHIqrIhlwlwBWzkA+42WYr/d0932JPAvLFNlkZT1eVoJ28by8CLmNDnfrUaINiUqRvqIID2rYC/DqC+WjwfpEqJqHEXcczSD2G2LKQGavhqoR4i2ZFVi4tufByYGafpggJ4eW4ztgQrRTuxMbJTDYcH6OvBN9KNqkgjR9vyAmEHixCA9HcCVQZpqwHQUJifah1WIcfDtsWtIs537J4emkxLoEaItWYmYSlyLiMs9vw42y48axG5EnvOi9RlJXJGtGjAPSx+egn0dmlZPpEmItuT7xAwYfw7U9IkgTT12RqA2IcpIVJW/HkvtQ/PHJjR9LrEmIdqOKVj1sYhBI6r8bAdwaZCmHktRWlWIMhCZTKsG/JX0kVwrALc3oOkclPVPiCR8i5iB4z5ikgOBbU9MD9JVw5KxvDVImxBl4SDikv3UMKfelTNpn4hl1BxMz2LgK8DwTJqEaDsmYrHoEQPIMYG69ie2AM98rCa6EK3Adti+eNTz0QUckLUFxg7Aj7H8F/OwsehWLI3xWgXoEaLt+DxxL9kNA3X9MEhXjz2HJecRospsgH2tRz4bP8jaAiFEaYjMyX8tcXuIY4G7g3T12BPIm1hUlzXxp5vua/8CxuRshBCiXBxM3IDy4UBd62AZySIHvEewuGkhqsRKWBncyGdhFloVE0JgldEiBpXZxH5l70uss1MNW1lYIVCjECmZCNxB7DPQCbwxZyOEEOVlS+JKo14UrO24IF297WZUbU+Un+WwezX6/ldefSHEqziTuAHmPYG6hgF/CdTWY7eh/OKivEwC/kn8fX8Jiq0XQvRhBeL23Gdje/hRTMb276MHwzuJrXomRARTgbuIv98fJK6IlxCixTiSuMHmBmITeaxHfAhUDXgIWCNQpxAeVsWSa0Xf5y8SG6orhGgxhhFbXORrwfp2ARYE6uuxx4F1g7UK0SjrY+Gq0ff3fGDHjO0QQlSUjYh7yS7BapVHcijmxZziC2nXYK1C1MsOWMKq6Pta6bCFEA3xFeIGoMeI97g/JlBfb1sAvCNYqxBDcQix6X1722cytkMI0QKMwLKERQ1CfyK+0lh0uuAeWwocFaxViIH4DGlWtGooza8Qokm2JzYJT3Rd72FYudAUA2cNOJ24KodC9GUksaG3fe0XpC/vK4RoYU4hbkBaAuwVrG84cH6gxr52HUodLOJZCbiGdPftRWjyKoRwMga4h7iBaQax+QHAvqQuDdTY154l3pFRtC+7Av8m3f16BTA6W2uEEC3NFsSG3t1C/AA1Grg8UGNfW4I5Hgrh4QhgEenu02tQdT8hRDCfJXag+kkCjROAvwfr7GvnoUxqonEmAReQ9t68Bhifq0FCiPZhGHAVsQPWZxPoHI1FHKQcaJ8CXpdAu2hNdsYSTaW8J/8CjM3VICFE+7EacbUCakAX8K4EOkcBFwbq7M86gdO6ryVEf4zAKllGl7Pua7/D/GCEECIpbyF28FqApfeNZjhpQwR77GZgkwT6RbXZDPN1SX3//YLYehtCCDEoZxM7iD2PFfqJZhjpkgX1toVYzQN9hYlRwLHYPZH6vjsNxfkLITIzmvivm8ew2OgUHEW6TGu97V5gp0RtEOVnZ9JU8etrXdjWghBCFMJawAvEDmw3kM6L+VDSVBHsa0uxLzNFCrQPk4AzyDPJnA+8LU+zhBBiYPbC4uMjB7irSRfHvBO23ZB6kK5hzpJHof3ZVmYYcBh576ndsrRMCCHq4AvED3SXky6T2QbAIwk0D2R3Anskaosojr2Au8l3Hz1EGj+ZotkCK1h0H/AK+fpzIHsZ28o7Bdg8YbuFaAk6sDCk6AcxZS7zycBlCTQPZr8HNk7UHpGPTbB7M+e9cwm2zdBKjALOIs+2SbO2FCsIplBfIQZhOeB+4h/AlNXMOrDUvjkHoE4sP8GGidok0rE28GPit7wGsy7ge9hWQysxirSFkKLtKhThI8SgrEeavdCzSBvq9CZgVgLdg9li4Fxac0m31VgTc+rMEdbX2+YAB2doXxGcRfEv9UbttCQ9IUQLsR0wl/iH7zekLW26AXn3c3tsIVYTQYmEysemwM9IW7hnILsTWDd9EwthS8q97D+QLcWSOwkhBuEg0qQ+TZ3udAw2y+9KoH0o68KWGQ9K2D5RH7th2zSp0/cOdB/8GBiXvJXFcTrFv8ybtZMT9IcQLUd05cAeu4z0BU8OJF9YV392K/BuVNI1J2OwPr+N4n7354A3pm5oCXiA4l/kzdo9CfpDiJYk1Uz/WszpMCVTgUsT6a/XXsK+BrdO3NZ2ZhPMye5Fiv2trwBWTdzWspBiizCXzUnQH0K0JMNJ9xK9EVghsf4O4FNY5rWiB54bgQ+g7IIRTAQ+BNxE8b/rPOATtE8+/w6K73OPdcV3iRCty1jgH6R5GB8DNsrQhvWw/fmiB58a5jR4KZZ9LvUqSCsxFvOvOBd76Rb9O9aA/6P98kJoAiBEm7E86cqizgB2z9CGDuyrMXe44GA2H0su9D+kXw2pIlOAdwF/oByrOD02Ezic9vnq740mAEK0IZOAO0jzUC7EBvocrIx9RRY9EPW1pcDt2H72brRe4ph6GAZsiyV3ugrLtVD079LXLgVWT9UBFUATACHalJVI5wGcuzzqQcCjwW2ItOexsMlPYS/FlDkUimIElnfiKCxsL7oyZaQ9jCWcanc0ARCijVkDeIJ0D+hPSVdEqC+jgM9jnsFFD0xD2StYlcVvYNnl1qNaS9AdmOaDsTZcTTkKxwxls7GQWOWSNzQBEKLNWQ94hnQP6S1Y+tZcrIxljKtadrOXseiCs4GPA/thTpW5JlD9MRpzjNuvW9PZwD8xrUX3VyO2FAvhnBrbPYWwJVat7y5su20WVi3vNBrPYNmOE4BNgTOwPpuF9eFdwKm0YLXBKn1ViOJYG/uK2yDR+WdgiV2uSnT+/ngtcCKwd8ZrpqAG/AeYBjyJLa3PxGLlZ3T/eSawABvMFnQfN4dlA+QwloUsjsUS7YzFHPOmACtiW0JTsJfkut22KtUfQ67GVobuKlqIk9HASdhEbCCfki4sTfcXgel1nLODan9F16jfv2Y1zCfnPYMc0wmciZVUX+RWJ0SFWAWbFaf8CjuG/C+UXYG/O7XLqmc3Uv3JXw9jaCz09WXsWRtqq8O7AuCdPOS4/misLxrZoroCZf4UbchU7Esp5cB8IcXEzO9DuvBHWXnsZlqvhkOzWTwfBQ4d5LytPgHYh+YdnU91tk2ISjIJ2+dNOUhPw8LjiuAgNBFoRbsZqxvRauyEvyDW1fS/v92qE4ANgb8EnHtXZ/uEqCTjsUEj5YC9BNuTS1lRcDCKrDIni7FOLJZ/H1qTDuAGYvpqMeYoOLHP+T3nLNsEYDwWfrzQed4eu4nq+8AI0RTjgD+TfhC/gWJrra+PDYxlSUkrG9oWYgmgNu3n92wl3kt8383AcjUMp3UmAB1YOu7pCfrr3c42ClFZhmMvx9QD+hzgiExtGoipwFeAxyn+BSfr3x4HvkxrhPMNxVjgKdL15e3YKpjnHGWYAGxH2i3LZ7CVBSHalqPIs1R+KXlzBvTHMGxg/DHlylnfrrYI26o5CJuQtgvHkr5vvb4FRU8AItpQj33d2U4hKs9byLNMPhubcJQhf/5KwGdIGx4p69/u7e77FYf8lVqP1YG5FP8bDGVlmADksPnAWs62ClF5tgeeI89DdwPl2uPdHHMwSlU/QWZpqU/Dkji1M+dR/G9Rj7XLBKAG/NrZViFagnXI90W8ANvzLSpSYCC2Br5DuQsQVcUe6e7LrRr6BVqXiLC/XNZOEwCFBQrRzVjgV+R7+B6mvDHe62EOjBdSjYI4RdsCLKvdMVhlRLGMyLC/HNZOE4AaCgsU4lUcQd4671dR7oId47Ays2cA91OdL7mU1gXch2WzeyM2eRT9kyLsL/Vv66FqE4AaCgsU4lXsTpr424FsMeahXwXnsOWwJDXHYZOXdogqWIyFmJ2GpaGtwu9UBlKH/aWwdpwAKCxQiD6sgS2P5XwQXwA+Rvn8AwZjFLbH+1HgLOB6LOqh6EGtWXsJuA6roPbR7rYNVYBG9M9xFP97NmrtOAGoYSGalUD7FSIXo4BTgP/NfN0ngW9iZVCXZr52FOsAW2DbG+t2/3uPjS5IUw+LsNoN07C+noZtb9yLfbFWmZWwe6Z36eQiWB3zc6nal2UNX7huVcsRLwA2AZ4uWshQaAIgcvNm4GfY4JqTR7CJwPlUc1Dpjw5gVWxSsAa2nD6lj60IrND998eyrIzpRJYNzl3YSw4sje6C7j/PwlLDzuxlPf/+LPbC79neaQWGYT4aHwH2BJbv/u9zgGuBH2GlYHNzHtXcW27XCQDYB8f7ihYhRBlZBbicYpbn7gPejia/YhkjgcOpL4fDn1g2ocpBlcL++lq7bgH0tF1hgUIMQAeW0W8BxTyg9wMfovgldFEc47F78Gkau3f+hZXFTk1k2N+vMYfTnImqqjYBeAxzTI1KtKSwQCGGYDPgToqZBNSA5zEHqymJ2ynKw/JYnoEZ+F6oqYkK++udqnYkNumZE3TuwawqE4B52BjQsz22BnGplqu4dSNEVsYA3weWUNxEYC4Wn79+4raK4tgMyzcQNbjvmFBrZNjfsf2cf1UsXLYz6Br9WdknAF1Ygq7+8vgfF3SNZ6me86YQhfBabHm1qElADfP6vgwrbjQibXNFBsZgX9LXEX+v/Dih7uOCNA71AtqedOVyZ/q6ALBQ0hTa7sCqeg5E6gmYEKIfRmBLlGWodjYd+B6wQdIWixRshP12L5Lu/rg/kfbIJej31HG9DuAw4gt53dpsB/QientwBja+1FM6+n1B11S1QCEaZAPg7xQ/CahhS4VXA+9CqWrLzATshXcteTzn5yVqx2+C9DXqhDYRy9URlb77xMab/l+cEqRlMXBydxvrpQO4Oej6qhYoRIN0YJ76Kb/iGrVXsFwCb2GZ05AojvHAO4GLyJ9KeXaC9kSF/XnC0DYC/hJw/Q2bvH5vNsDvp3A1zdcIKcPvIURbMwlbzl1E8ROA3jYPuBQLHVI4YT7GAAcB51JshcVbgtsVHfbnxRM2eELA9Xs4uUkNj2LPpheFBQpRAjYF/kbxL/7+7CXgAiyhzCqJ2t/OrIrtU/+OcviH1IDjg9v4niBd8zA/gghGA1+ksYnW5cQ60I7EimXVe/1XujVHTcrXxPo04rdRWKAQTg4AHqL4F8BA1oVFM3wXq4aoaILGGQvsB5wE3EPxv2lfW0ysY9c4rJJchLbjAnX1sBq2qjDYcnwXFs6b4n4fgd0Lgy3Hd2KrQqsluP43BrluI/Y09lsLIRyMBD6NL5lLLnsJuAT4ArYPqO2C/2YksB3weexrr6gMkfXaV4Pbf1yQrmdI+4LZAHsR347VipiJhdSdSJ5omQ27r/+v7mvPAm7rvn7KHB7jiZugHZtQpxBtxfLYA1WlsrkLsb3eE7DiSFPDe6XcdGCOZu8FTsPi0Mv+wu9t51BfGFm9KPNcNUiRmVEIEcBk4DsU6xTmsenAldiXzGHANrTGSsEErC3vxH6fK0mX3CW1zQM+h6/CXX/IyawalM1J041uFtFq/L/27i3GrqoM4Pi/helwtSg0pgUMRgqlgBivoLxo8FFMTIiJKA+ixqCPJpAQFY0xSAstV8U3BV+I8UVUKCUao6IglDtiMSm3CLZQoBdgOp3x4TsnnZTpzJw567L32f9f8uW0Jd3rsoeuddZ1BTHUfhntn2ubJK4x3gpsI67f7cc2orPTBEcS32JPA07vfa7ufaZajFbTbuDnxJ70FxM/ew1xoNCwnYppYr3JX4fOkeZyLjFiNWzbOU1sTXxq6BwNwcVJGjXbiXnka4lva1/nwL3ubXM4cX792kP89x3EvOTLxHzowbGD+LbNjM+3iSFIgDeIhueY3mf/kJTlM/58DDiWWIW/gpiuWNn7XEEsuDpmqFI213bifoibibnmHL5NmhGFKeALxHXXryd4nt5pObGtcIrhp4CWAN8kTiWUlMmxxP9kqc71NkY/thE/MyVGkFJfzzvIUbdamFxHJT9SshBSl40Rvfd/UL+BMZoZjxH/0I9RTq7Fj/NddqOFyXlZkiM1UgUXAL8n71WoRjtiAvg18FnqrIl6a8D8DhJT5NsXP+r65x7kvFOiKWt4pE46EbicGPKt3RAZZeMF4njpk6nrCfKXdQ9xzoB3V8xvjJhCeZ387+XhQmWSNIelxKjAHaS7Cc1oXkwShwxdRHPmyG+kXPm3EncoaHYXEnVU6n1sKFMsSQu1CriSsv8QGHnj6d47XUnznEP5qai7iO2HCmuIOin5DiZZ/A2Fkgo4kxg6tTPQvthGnDLYhoVwt1C+fiaIrbL9rZ9dtJw426HGqN8NBconKZF+Z+A/1G/cjNljGwca/TYdcjYO3EudOnsJuJT0pxs22VKizC9Tp843Acuyl1JSckuJBmY9ZRZwGXPH08SdCh+Z66W1wBHEt8Kcq87nigeA87KXsr5PEmWtUcdTRAd1FI74lgS8l9g7fgftupCorbEL+C3wDeCU+V9P69RuoNYxmifEHk5MedjBkpTFGPBp4hvpA8A+6jeYbY8J4M/E9bsfpzmr93OqPUR9N6PVCRgDNlOnLrs4xSKJuEP8M8B3iVXGJfYWtz12Eg3Qj4gta8cOXOuj4xhi3UnOw4IOFdfkL14xGyhffxPEcH+XF1lKmuEwYtvXt4g75R+izj/uTYk3iWNWrwcuJm4PbNPivVJOA+6k7LuZ6qXbdqspP+y/Gbf4SVqA/o1/XwR+TMxvb6N+45wy3iYWTP6GmB65FPgwZc/cHwUXAs9Q7r2tK1OsrEp++99KvKPWsLctNdOxwPt7ccqMX/d/37Sh8deI+c4XgH/34une57PEYTca3hhwGfBD8l9z/QCx7qLNtgAfypzGXqKzdDUxotcadgCkdjqB2IFwfC9OAFbM+P3xwHs4sOXo3b3PcQ5cc/suYlpiL/EtvW83MTy/qxdvAa8A24H/Af/t/fplotHfftDfV34rifUBXyPfArNXiZ+jNtsJHJfp2dPERVLfAZ7LlEZWo7TSU+qSHb1QN/nlTZKkDil5W939hcqU0xby15O3LUqSsip9W90obAW8jrKLAL1tUZKUzGnA7yjXkE0TW+dWlyhcZqdS/rZFtwFKkoZS8yCgq/MXr5hrKV9/HgQkSRpY/yjglyjfcE0Tp1aO0gLxMeAe6tTlS8BX8ShgSdI8zqPuZUDrGa3Gv6/2ZUD3A+dmL6UkqXVqXwf8T+ImwlH3KaKstTpYG/E6YElSzzhwL3UapZfJe5hQEy0lylzrtsVNwLLspZQkNd4tlG+EJogtcl1epHYccVfABOXr/8YC5ZMkNdg5lN+mdjdwRonCtcQZRJ2UfAeTuFVQkjrtRso1Os/QstvqCvs8ZW9b3FCmWJKkJnqC/A2NR9UuXMmjlh8uVCZJUgPlPORnCrgNWFWsNKPjROB28u7K2FWsNJKkxnmTPI3Lg8D5Bcsxqj4G3Eeed/R6wXJIkhrmcdI2KjuIIezDShZixC0BLiH9yYxbShZCUn3nEAu/niLmZnMNLy409gBPEueWn52x3H1n99J6Atjdi8eJBVFnFUi/aW4izXucxG19uR1H1PEkad7ZxrLZl1TLOHAr5bd8DRL7gZvJc0jJOPDTeco/SXSOunRIyumk+ZmYIk65U17nkmZdwBRuxZQ6YRz4E/Ub+IXGZtI2wuPAHyum33S3k+a93UcMVyuPJcBfSPOuflk475IquZX6jfqgcUPC8v+scvpNdyIxFZLivV1cOO9d8hXSvKO9wPsK511SBTVOeksRk8DaBOX/4CLLnyr9triKNO/tOeCojPk8lbhV70FgJ/Aq8BCwrvffclvdS39LL+2dvbysBz6QMd2jgOdJ846+nzGfkhok1SKvGnFtgvLfUDn9tmh6A7OKGLaeqzO3H7iGPNcJjxGN/Fzz7/uBXwArM6R/1RzpNqmDJqlBnqJ+Q77YeDRB+Z+snH6bXEya97YHOClRnsaBy4lDaxaa/ibSdgLGGOy2xDd6eU517e7JpNux86VEeZLUAk3Y6rfYeC1B+YeZ2+7aQSkpF5ndliA/F7D4Dtw1CdLvu26RedgKXJQg/V8tMv2Dw0WaUscM8s2pabGzcvlTdEDa5hOk22a22JMAVwN3Jkj/tEWmP9OpDL+GZjOLv3kv5bY/t2lKHTPMEHjteKRy+bs2BdBXa1vgcmLdxUSi9NcNXvR32JAoLxPEGoJBDkpaAvw9UfopRmQktcz11G/IFxsphnGHKf/6BOm3UeltgbmOur1/sRUww5bEeRrkqGS3/UkaytmkOzq0ZOwD1lQs/z66fVLaVaR5jy8AR8+RzkeBvyVK6+B4ZbgqAGIaKkfeHmTuIfkjgWcTpfW9IetAUou1cStgyi14Ny8i/a6fk56yAbpqluevJP/R1FND1sGSjHnr5+8OZv92/oNEaTzP3B0wSSNuGbEQqXajvtD4A7H1KmX5B9nGtSlx+m31ZdK8z5lD0GPEEPjriZ49XwM7jNwdgH7sJjpJR/TSPYl0UzBu+5PEMuJQnCZPB+wjvvnnaHyXESMhc5V/H/HN38Y/LCHdXfS3A58jtsaV+nlqSwegH1t7deS2P0lZrCUa2Ucp8y1svniNWO2/jjRz/vM5i1jZ/TixRXAX8BhRJ106+nehUm0LrBFt6wCkLrvb/iRJQ0m1LdAOQLloxW1/Dk9IUrOdCDxN+xaTTQNLh/j7Sxi+E1HDm8Ro2nO1MzKfYV6OJCm/F+numQhtdDUtaPzBEQBJaoMjgX/RrgNlujgC8ALx7X9P7YwshCMAktR8bwJX1s6E5nU5LWn8JUntkfK2QBcBpg+3/UmSsmnTtsAudQDc9idJyq4t2wK71AFoxba/gzlcIUnt0pZtgdN0YxFga7b9HcxFgJLULqW2BU4XSCO3EmX4CS1s/CVJ7ZTytsDZ4kHg/CGfUXsKYIq81x1P421/kqQKUt0WODN2ELcFHkaaBngYqdJfAlwCvJShvrztT5JUXMptgRPA9cDyg54/Ch2AvqOJa8yN0rEAAAG1SURBVH/fGvK5/XDbnySpmhTbAjcDZ87y7FHrAPStBu5M8Gy3/UmSqrqBxTViW4GL5njuqHYA+i4AnlzkszcMWTZJkoZ2BLCJhTdeu4ArgPF5njvqHQCIOriCqJOFPvcu5q87SZKKGCdGAvZz6IZrP3FgzaoFPrNNB/EM2wFZBdzG3PU3SayTWDbAcyVJKuIsYCPwMLAXeBV4tPdnpw/4rC51APrWEI38o0Td7SXqciOzr5NoNVcwSpJm05aT+A5lGg+7m5OVI0lSB9kBkCSpg+wASJLUQXYAJEnqIDsAkiR1kB0ASdJspoHdtTMxhDdqZ6Dp7ABIkg7l+doZGMJztTPQdHYAJEmHck/tDAxhU+0MSJLUVmcTR+DWPtVv0NgHnJGhPiRJ6oybqN+gDxobs9SEJEkdsgzYTP1GfaGxCRjLUhOSJHXMMuBGmj0dsI/45m/jL0lSYmcCG4DHgV3Ub/R3AY8B1wJrM5ZbkiRJkiRJkiRJkiRJkiRJkiRJkiRJkiRJkiRJkiRJkiRJkiRJkiRJkiRJkiRJkiRJkiRJkiRJkiRJkiRJkiRJkiRJkiRJkiQV9n+zQbOooCm3WgAAAABJRU5ErkJggg==;" vertex="1" parent="GKxMql-4dVrDTyN0ciHh-18">
          <mxGeometry x="16" width="72" height="72" as="geometry" />
        </mxCell>
        <mxCell id="GKxMql-4dVrDTyN0ciHh-15" value="" style="shape=image;verticalLabelPosition=bottom;labelBackgroundColor=default;verticalAlign=top;aspect=fixed;imageAspect=0;image=data:image/png,iVBORw0KGgoAAAANSUhEUgAAAgAAAAIACAYAAAD0eNT6AAAABHNCSVQICAgIfAhkiAAAAAlwSFlzAAAOxAAADsQBlSsOGwAAABl0RVh0U29mdHdhcmUAd3d3Lmlua3NjYXBlLm9yZ5vuPBoAACAASURBVHic7d13uF5FubDxe6eHhBp6DaETOigIIoqgiIL6iVixYMGGgIIgeJTi8dg9YgNFUBCPAooNGwdQQOlKLwlK7ySEhJC2k/39MTuHTcgu755Zs9r9u665sPCu95n1rr3mWbOmdCGp7sYBG/YpGwHrAqstUyYAo4AV+znOHKAbmAvM7C0zev/5MHD/MmV+IbWRlEVX2QFIGrJxwDa9Zes+/9yopHjuBW4HbutTbgEWlBSPpA6YAEjVNQXYDdi19587AGNKjWhwC4F/AtcAV/eWe0qNSNJymQBI1TEJ2BvYB3gVMLnUaNJ5BLgS+B1wEeG1giRJrbYVcAJwHbAY6Gl4WQxcCxwPbJHg/EmSVBvbAacQ3pmX3SCXXW4FTga2jTqjkiRV1CrABwld4WU3ulUttwHHAmsM8xxLklQJXYR3+ecTRsaX3cDWpcwHzgP2xXFKkqQaGQe8izAlruzGtO5lGnAEYQ0DSZIqaR3gy4SFc8puOJtWZgBfAtYe8q8hSVLB1gS+CDxL+Q1l08t84HRgvSH9MpIkFWB94NuERqnshrFtZR5wKiYCkqSMJhBGq8+h/Iaw7WUuofdlpQF/MUmSIowgDO57hPIbPsvzyxOEwYKj+v31JEkahr0Ii9aU3dBZBi43A3v28xtKkjRkk4AzgSWU37ilLM/y3Ja/TRu8uAQ4g7AFsqR+uMiGtHxdwCHAV6nHynTzgH8Rtui9F7gPeAh4srfMIDT2zwxynImEhnMSod6TCIMdN+otk4FNgPFpwy/E48AngZ+UHYhURSYA0gutQ3jq36/sQPrxGGGb3X8SXkvcDPybsNFODiMJScB2wDaEbYp3A9bK9P2d+gPwPsLYDUmSlusgwhNz2d3YfcvdwHeBdwJTiqt6tE0IMX6P0BtR9nnrW54A3lRc1SVJdbUycDblN1Q9hO783wIfBTYtstIF24xQh98R6lT2ee0BfoRTBiVJvXYidKGX3ehfCLydZjZQKwHvAH5F+cnAvwivLSRJLfY+ym2QrgLeTzMb/f6sBHyAMI6hrPP+LPDeoisqSaqeccAPKafxmQV8HZhaeC2rbyrwDcI5KeO3+AHhWpAktcC6wPXkb2zuBg4nTLXT860IfJxwjnL/LtcRZn5Ikhpse+AB8jYwNwBvJCwlrIGNAP4f8A/y/kb3E6Y1SpIa6FXA0+RrVG4G3ozrbQzXPuTtqZkDvC5LzSRJ2XwY6CZPQzKd8BRrwx+vi7A2Q65XA4uAw7LUTJJUuGPJ03g81ftdY/NUq1VGE3b7e4o8v+Xn8lRLklSUL1B8Y7EEOJ2wbr6KtQZho58cmzN9PlOdJEkJdRGmlxXdSEwH9s5UJz3npcDtFP/7fhcHb0pSrZxKsQ3DQuBE7O4v0zjgZMJvUeRvfRqO55CkWngzxTYIdwC7ZKtNcVbuLXX3IuAuiv3N/yNbbaRMzGrVNCMJDfRmBR3/HMKMgrkFHT/WRsBWwMbA5N7/vjZhfMIkYDX677VYAMwEZvSWR4F7gfuAewjn9b7CIo8zHvgiYaGlIu5riwjrBNxZwLElSQnsRTFPgE8BB2asx1BMJmwedCpwJXmW053V+12nAm8jJBhV8kaKW+vhtIz1kCR16ATS3/hvohrb8q5BaHR/BDxE8Y39UMuDwFnAW4HVi6p8BzYHbiF9PR/LWQlJUmdSD/47B1ghaw2ebwPgSMJT92LS1q2Ishi4gjBnf/0CzsdQTQDOJX39nOopSRX1ZdLc6JcAn84c+1ITgPcQGtIc892LKkuAvwLvorwk6jOkPYeTs0YvSRqyDxB/k59H6M7ObWvge+TdryBXmdVbt62Sna2hezswv8N4+0to3MlRkipqPeK6yp8E9sgc86uBP1Lvp/1OGtHfA/smOXNDtydhZkNM7DdmjlmS1KHhvvt9BNg2Y5z7ANcMM9YmlBsJazbksh1hauNw4z0uY6ySpGFYnzBiu5Ob+/2E0eM57AVc3WF8TS5/Jzyh57AF8MAwYnwIu/8lqRZ2I3TnD+Xmfhd5BndtCJxNO7r6h1N+C2wy7LM7dJPpbHvhBYS9ByRJNbEJ8Cf6v7EvIuwst2LBcYwDTiE0JGU3slUv84GTKH6PhbUY2uuXJ4FXFhyLJKkgLyJs7fpr4FLgAuAYYEqG796TPLvWNa1Mp/iGdyTwEZb/+8wAvklIFCRJGrLxwLewuz+mLCE0wuM7PPfDMQV4FfBaYEdCciBJUke2JSwfXHYD2pRyO7BTR7+AJEmZfQzf9RdRFhB2YZQkqVJWAH5C+Q1lJ6W7t5QdRyflx5S7N4PUGEXsmy21zQaEKWzblx1Ir3nAtN4yvc8/n+kts4C5hKdqCCPuJwCrEOa6TwQ2I6yLsHmf/5zjXfxQ3AgcQNiFUJKkUuxE+VvzPgacB3wUmEoxiX1X77E/BpwPPF5ynR8kDNaTJCm71xKeqMtoAK8HPkFxDf5gliYEnwRuGEK8RZQ5wGuKrqgkSX0dDCwkb4N3P2Fa3A4Z6teprYAT6WyFvRRlAXn3E5Aktdi7yTt47g/AK6jHmJ0uYG/C7oa5zk838K4clZMktdfridtuuJNG7WfU+z33ToSxCTnO12LgTXmqJUlqm3WA2RTbkC0hTHXbNFOdcticPJsgzQLWzVQnSVKLnEqxDdg/gJdkq01+ewD/pNhz+I1stZEktcII4FGKabSeAo6gHevPjyC8r3+CYs7lE73fIUlSEptTTIN1AbBGxnpUxZrALyjmnObY5VGS1BJ7kraRmkfYirbtPko4FynP7W5ZayBJarQdSNdA3Uk15/KXZUfgLtKd36osySxJaoCVSLPwz08Ja+3r+VYkTHuMPb8LqM6eBZKkhriYuMbpK9RjMZ+ydAFfJe4cX5Q9aklS472S4TVKSwhr5mtojmb4awbsVUK8kqQWOIvOGqSFwCGlRFpvh9D5K5fTSolUqim7I6XOjCUsb3vgEP7dWcBbgT8VGlH/1iEsLLQ5YWXBzYD1gJWBFXoLwFzgWcIqhw8SNvSZDkwDriKsf1CGVxPGBawyhH/3AuDtwKJCI5IktdoI4BhgJv0/jf6R0PDmNBF4G3AGofGOHVC3tNwF/ICQzEzIVptgM8J7/f5iexI4HB9mpI75RyMN38qE/ej3ANYmPEXfRWiwbsoUw2hgP8LT74E891RflLnAb4D/ISQ5uZ64pwL7E5KqicAjhN6J3xHWEZAkqRUmEpYPvo90T/qdlkeAEwmJkCRJKtAE4CRgBuU1/Mvrhv8c+V8PSJLUCgcA91J+g99feYiw0Y+vFiVJSmBT4DLKb+CHWi4FNinkTEiS1BIHEbYLLrtR77TMBt5RwPmQJKnRJgBnUn5DHlvOoPiZCZIkNcJqwN8pv/FOVa4F1kx6hiRJapjJhO2Cy260U5d/EcYySJKkZUwFHqb8xrqo8nBvHSVJUq81gHsov5EuutwDrJ7onEmSVHs/oPzGOVc5PdE5kxTBBTuk8q0D3A+MKjuQTLqB9YHHyg5EarMRZQcgidfQnsYfQl1fW3YQUtu16aYjVdVWBR//PuBywtTCacB04GnCYj0QNvNZmTBKfwtgd2AvYIMCY9qywGNLklQLp5P+PftjwFeAHSPi2hn4KvB4AfGdFhGXJEmNcArpGtZ7gQ8B4xPGNx74CGGcQqo4T04YnyRJtbQ/8Q3qPEKjWuSyuysAnwfmJ4h3/wLjlCSpFsYRuuyH25jeDmybMd7tgTsi4n2MUGdJklrvcIbXmJ5HOZvtTAAuGEa8PcBHS4hXkqRK6gJ+TmcN6XcodyrvyN4YOon5Qpx+LEnS84wFzmLwRrQbOLakGJfng8BCBo/7XNIOTpQkqVEOAK4GlvD8BnQ+8Etgu/JC69dUwuuIZ3lhsnI5sF95oUlaHpcClqprbcIiQasS5uLfCDxTakSDG08YkLgGYbGhO4EnS41IkiRJkiRJkiRJkiRJkiRJkiRJkiRJkiRJkiRJkiRJkiRJkiRJkiRJkiRJkiRJkiRJkiRJkiRJkiRJkiRJkiRJkiRJDdNVdgBKbgywBbBxn7I2sCawOjAJGN/7765aRoCSKmUO0A0sBGYAT/b+82HgPuCe3nIX8ExJMaoAJgD1NhrYGdgd2AnYntD4jy4zKEmNtISQCNwI3AT8HbgGk4LaMgGoly5gR2A/4FXAi3nuaV6ScusmJASXAn8Aruz931QDJgDVNxJ4OXAwcACwTqnRSFL/ngb+BJwH/B6YV244GogJQHVtD7yP0PCvVXIsktSpOcCvgbOAy4CecsPRskwAqmUc8Hbgg8CuJcciSalMB84AfkgYYKgKMAGohjWAQ4GPA+uWHIskFWUB4fXAF4A7S46l9UwAyrUWcBxwGA7mk9QeSwiJwImE6YUqgQlAOVYFjgU+BkwoORZJKsti4CfASYQphsrIBCCvEcA7ga8QFuaRJIVFiE4D/gOYXXIsrWECkM+ewHeAbcsORJIq6mHgGOCnZQfSBiPKDqAFJgBfBP6Cjb8kDWRd4FzCGgIblhxL440sO4CG2xe4GNgfe1skaag2A95PmDJ4Q8mxNJY9AMUYS3jq/yOwfsmxSFIdrQicDlxI2MhMiflUmt5mwPmElfwkSfEeBt4GXF52IE3iK4C09idsiDG55DgkqUlWBA4hzBb4W8mxNIY9AGl0EaavnEi1zuk8wiIbdwHTCNNrZgOzCOt0z8HNOqQ2G0NoXFfuLRN7//smwJaE7cVXKS265fspYZ+U+WUHIo0BziFsdFFmmUfYkvME4NWEXgjHeEiKtTbwCuAIwuY+syj/fncljgtQyVbhuV2uyig3ENbUfiUuJSwpj5GEzco+DVwCdFPO/W8asGnBdZWWazXgWvJf9A8B3wR2KL6KkjSodQm9A/8g//3wUWC74qsoPWcd4DbyXeSLCO+99sVufUnVtRPhAWU2+e6PTwI756ictA6h6ynHhT2fsD72xllqJklprEYYFD2TPPfKWcAuOSqm9loduIU8Df/puIiQpHqbSHg98DDF3zefAnbMUy21zUqEQXdFX8Q/I7xTk6SmmEjYBXUhxd4/HyEsxiYlMxr4E8VeuNOB/XJVSJJKsAVhf5Qi76X/wu3WldAZFHexziMsIjQ2W20kqTxdwLuBxynuvnolMC5XhdRcx1DcRToNp/NJaqd1CdukF3V/PTdbTdRIexOm4BVxcf6C6i2xKUk5jSTMFlhMMffZI7LVRI2yIcV0Uc3Di1KS+noFxcwUWATslbEeaoBRhB2nUl+MTwK7ZayHJNXFhsDtpL/vPoT7BqgDJ1LMRbhtxjpIUt2sShjAl/r+e2HOSqi+diP9e//bgA1yVkKSamoC8HvSJwEfyFkJ1c9Y4A7SXnTXAJNyVkKSam40YRR/ynvxbHwQ0wD+k/RP/jb+ktS5kYTZUinvyb/PWgPVxnakXabyfsw2JSnGCqQfE/CWrDVQLfyFdBfYk8BWWaOXpGZaGbiRdPfnBwl7E0gAHES6i2seTvWTpJTWAx4g3X36lLzhq6rGAfeQ7sI6LG/4ktQKLyXdDK1ngY3yhq8qOpJ0jf/PM8cuSW1yHOnu1z/MHLsqZgLwKGkupunASnnDl6RW6QJ+TZp7djdhe2K11KdIcyHNw139JCmH1Uk3HuAnmWNXRYwFHiHNRfSZzLFLUpvtR7pegE0yx64KeD9pLqBphIGEkqR8fkWae/ipuQNXuboIq/SluHhekzl2SVLYPfAZ4u/hc3HF1lbZhzSN/89yBy5J+j+fJs29/Jjcgas855Ema1w3d+CSpP8zBriL+Pv5XYSeYTXc6sB84i+Yb+QOXJL0Au8hTS/AyzLHrRJ8gvgLZT5haUpJUrlGA/8m/r7+49yBl62NXR7XAbtEHuN04EMJYtHyrQ3sDewKbAlMIQzSWbqBxzPADMIf/Z3A1cBlhEWdpCpbkbAb3Z6EV4iLCUuR/4GwVW13eaHV2oeA70UeYw6wFmFdFzXQFGAJcVliN7Bp7sBbYBLwcUKCNtzf5lrgcBzRq+oZARwBzKb/6/ffOKtouMYSdvmL7QV4Q+7Alc+xxF8gP80edbOtD/w3YVBlivd4PYQegm/gaxpVw0jCfWMo1+4Swv4k6tzReH/XAK4g/gLZJ3vUzTSa8EQ0h3QN/7JlLnAi4elAKssX6fzaPbCUSOttTeJ3C5wJjModuIq3KvEXx4OEbF5xtgBupLiGf9nyT2DzLDWTnm8HwmvDTq/ZR3CF0eG4iPj7xR7Zo1bh3kL8hfFf2aNunjdR7FN/f2U28MYM9ZP6ilmu9tAS4q27txJ/rzgle9Qq3OnEXxhbZ4+6Wd5DfC9MTOnG2RvKZ0fiBh3/PH/ItTcemEXcfeKq7FGrcLcSd1HckD/kRjmM8hr+ZcvhBddVgvjNam7OH3Ij/JC4876AkEioIVYjzLeNuSj+M3vUzfEmhvcetKjSjdN9VKzYp/8eYHr2qJvhYOLvEXtlj1qF2Z/4C+KV2aNuhk2Bpym/0V+2zCEsMiQVIcVWtZdmj7oZ1iA++fp09qhLMKLsADLZKfLz84G/pwikZcYAFwArlR3IckwkzPkdXXYgapwdSTONz3fRw/MEcEvkMXZMEYiqIXb3v0vyh9wIx1H+k/5g5ejCaq+2SvH0vwSYmjvwBvk6cef/jvwhqyh3EncxnJA/5Npbj7AiX9kN/GBlDrBOQedA7ZPi3X8PcGHuwBvmtcSd/24cCNgIo4mferZf9qjr778pv3EfavlaQedA7ZPq6T92w7K2W5v432GH7FEruSnEXwiTcwddc5NIu7Z/0eUZ3EBI8Xz6r5aniPsdGj9TqA2DADeO/Pw84P4UgbTIO4AVyg6iAxMIK4hJMT5H/BbrPTjlOJW7Ij8f23ZUXhsSgMmRn59GyOo1dIckPNYthN3RtiGM3J/Y+5+PJCzulMq7Eh5L7ZNq5P9vgOsTHEdh7FeMxicAbXACcd1A/5M/5FpbhzTdoPOBDzNwkjoS+Chh5a7Y71tC2E1MGo4U7/57gBflDrzBPk3cb3Fe/pDzakMPQOy73buTRNEeLye+G3QB8Brgewzc+7IY+E7vv7sw8ju7gFdEHkPtlOrp/9fAdQmOo2Ba5OdXTxJFhbUhAVgj8vNPJYmiPXZLcIwjgcs6+PcvBT6Z4HtTxK72SfHuH3z3n9qsyM+bADTAKpGfn5MkivaIXV73FuD7w/jc94DbIr/bpYHVKZ/+q+vpyM+vliSKCmtDAjAu8vOzk0TRHptGfv6HDG/Q5eLez8aIjV3t49N/dcU+vMW2HZXXhgRgbOTnTQA6E9vjcnFJnwVYNfLzahef/qsttgcgtu2oPBOAwfkKoDMTIz8fs+bCfZHfHRu72sWn/2qLfXhrfALQBtcTNxVk5/wh11rsNKi6f7/aIdWqf7/KHXjLeD8YQBt6ACQpNZ/+VXsmAJLUmZSr/vnuX6UxAZCkzqR6+v98gmNIw2YCIElD59O/GsMEQJKGzqd/NYYJgCQNjU//ahQTAEkaGp/+1SgmAJI0OJ/+1TgmAJI0OJ/+1TgmAJI0MJ/+1UgmAJI0MJ/+1UgmAJLUv1RP/7/Fp39VjAmAJPUv1dP/KQmOISVlAiBJy+fTvxrNBECSls+nfzWaCYAkvZBP/2o8EwBJeiGf/tV4JgCS9Hw+/asVTAAk6fl8+lcrmABI0nNSPf3/Dp/+VXEmAJL0HJ/+1RomAJIUpHz6vzbBcaRCmQBIUuDTv1rFBECSfPpXC5kASJJP/2ohEwBJbefTv1rJBEBS2/n0r1YyAZDUZj79q7VMACS1mU//ai0TAEltlerp/yJ8+lcNmQBIaqtUT/8nJziGlJ0JgKQ28ulfrWcCIKmNfPpX65kASGobn/4lTAAktY9P/xImAJLaxad/qZcJgKQ28elf6mUCIKktfPqX+jABkNQWPv1LfZgASGqDVE//ANcAPRUpTwCXAZ8CVk5UP6kxrifuD2zn/CHXWuwNre7fr2r6FeU31kWX2cA7U52whvB+MAB7ACQ1Xcqn/ypbETgH+I+yA1E9mABIarrPkebdf12cBLy27CBUfSYAkppsKu14+u+rC/geMKrsQFRtJgCSmuwQ2vX0v9QGtC/xUYdMACQ12f5lB1CiN5YdgKrNBEBSk61bdgAlmlJ2AKo2EwBJTTam7ABKtFLZAajaTAAkNdmdZQdQonvLDkDVZgIgqcmuLDuAEt1QdgCqNhMASU12KtBddhAlWAycVXYQqjYTAElNdi/wzbKDKMG5wH1lB6FqMwGQ1HTHAX8qO4iMZgJHlx2Eqs8EQFLTdQOvIyyRu6TkWHL4FGGXQKn13A0wr7J33yr7+1VtmwFfIQyQm0n5O/ilLn+lnSsf9sf7QcuZAORV9h9c2d8vdaILuIQ0jf8CYOu84Vee94MB+ApAKb257AASOKjsANQq7wX2TnSsLwG3JzqW1Aj2AOTxNmAR5Wfcsd/fDbw7QRzSYCYBj5Pm6X86MC5v+LVQ9v1IJTMBKN7BhHnHKW5ksVLEsBh7AlS8H5Pmeu0B9skce12UfT9SyUwAivUyYB7pbmSxUsWxgHRds9Ky9iLMSEhxrZ6dOfY6Kft+pJKZABRnMjCDdI3u0wliejphPE8CGyWISeprLHAHaa7RGcCaecOvFROAATgIUMM1FjgPWC3hMe9NcIwHEhxjqUnAz2n3jnJK73hgy0TH+hRhHIGk5bAHoBhfI92T9tLyjQRxnVpAXF9OEJcEsDnpXpldjnP+B2MPQMuZAKS3K2G0fMpGdgmwXYLYdiDdu9WlpRt4UYLY1G7O+c/PBKDlTADSGgXcTNoGtgf4VsIYv1NAfDf11l0arkNJdz2enDn2ujIBaDkTgLQ+RPrG9S/ACgljnEBYEjV1nB9MGKPaxTn/5TABaDkTgHQmAo+QtlE9n2JuZuOACxLH+jAhuZA65Zz/cpgAtJwJQDpHk+4mtgT4IsXOROkCjiXdIkU9wJEFxqtm2gvn/JfFBKDlTADSGAXcR5qb2HzgTRljP4gwaCpF7PfgWAANnXP+y2UC0HImAGm8mTQ3sSWEfQNyewfpnsJyJi+qt5NIc831AO/LHHsTmAC0nAlAGheR5iZ2TO7A+zhugLg6Kb/JHbhqyTn/5TMBaDkTgHhrkmanv1/nDnw5fkd8PRYCa+QOXLXinP9qMAFoOROAeO8n/g9pNrBB7sCXY0NCLLH1eW/uwFUrzvmvBhOAljMBiHce8X9IH88edf8+QXx9fp49atWFc/6rwwSg5UwA4owAZhJ3Dp8AxucOfAArEL+L4Qx8J6vlc85/dZgADMDdADWYLYBVI4/xfcJgqKp4Fjgj8hirAZsliEXNshdwSKJjnQP8b6JjSa1kD0CcQ4g7f0sI792rZjLx0wLLmM6o6nLOf/XYAzAAewA0mG0jP387cH+KQBK7F7gz8hix50bNcjywZaJjfYowjkAqjAmABrNx5OcvSRJFMS6N/PzkFEGoETYnNNopXAGcmehYUr9MADSYjSI/f0WSKIoRG9vkFEGo9rqA75FmtP5CnttxUyqUCYAGs3rk5+9JEkUx7o38/KQUQaj2DgX2TnSsLxFem0lKwEGAcZ4g7vytlz/kIduIuLo9nD9kVcwk4v9Glhbn/KfnIMAB2AOgwawQ+fknkkRRjMciPz8hSRSqs28Q30u21IcJO2VKWZgAaDDdkZ8fkySKYsQ+bcWeG9XbXsA7Ex3LOf/KzgRAg1kY+flVkkRRjNjYYs+N6msscBppVoOcCRyd4DhSR0wANJg5kZ+PXUWwSLEJwNwkUaiOTsA5/6o5EwAN5pHIz09NEkUxYmN7KEkUqhvn/KsRTAA0mNgEYPckURRjt8jPP5okCtXJ0jn/YxMcyzn/KpUJgAYzPfLzVU4AYmObliQK1Ylz/qUacR2AOG8n7vwtppor5m1IGMUfU7eDs0etMjnnv35cB2AA9gBoMDdFfn4E8P4UgSR2GDAy8hg3pwhEteGcf6lm7AGI00X8U88jwOjcgQ9gFGEAX0ydHiPNFDDVw17Ebx+9tJydOfY2swdgAPYAaDA9wF8jj7E24Ym7Kj4CrBt5jMtowQ1CgHP+pdqyByDe+4jPpJ8C1sod+HKsDcwivj7vzR24SnMyaZ78ewh/S8rHHoCWMwGItxphylLsH9NPcge+HD8lvh4LqPYCR0pnc8K7+hSN/+X42ig3E4CWMwFI4yLS3AQPzx14H0cMEFcn5Xe5A1cpuoBLSHPNLAC2zhu+MAFoPROANN5AmhthN3BA5tgBXkP8tL+l5cDMsascKV59LS0nZ45dgQlAy5kApDESuIc0N8M5wGszxn4A8Eyi2P9N/PRBVZ9z/pvBBKDlTADS+QRpbog9hKfxj2aI+XDSPfn3EF4jqPnOJt01s0/m2PUcE4CWMwFIZzzx8+eXLT8B1iwg1rWAcxPH+gA+ybXBXjjnvylMAFrOBCCtD5O2Ue0hzI3+IGkWCxpN2GBlZgFxfjBBfKq2scAdpLleZlBMcquhMwFoOROAtEYC/yB949pDWDHwi8D6w4hrLeBY4P6CYruRsIKgms05/81iAtByJgDp7UrY5KeIhrYHWARcA3wFeB0wlbCAz0hCI7w2sA1hcN9XgWt7P1NUPN3ALknOnKrMOf/NYwLQciYAxfgKxTW4VSv/leicqbqc899MJgAtZwJQjNHAVZTfOBddrgXGJDpnqq73k+6acc5/dZgAtJwJQHGmkG6udBXL48DGyc6Wqmp1nPPfVCYAA3A3QMX4N/BGQpdn08wnrH54T9mBqHBfJyQBsXoIM1DmJziWpATsASjewaRdbKfssgj4f0nPkKpqKukGtDrnv3rsAWg5E4A8DqbYkfi5SjfwjsTnRtX1PdJcNzOANTLHrsGZALScCUA+B5NuGlUZZR7wpuRnRVU2jTTXjnP+q8kEoOVMAPLajTB4ruzGvNMyA9izgPOhakuRsDrnv7pMAFrOBCC/KYTpc2U36kMtVwMbR836swAAIABJREFUFXImVGVdhAGsMdfOAmCr3IFryEwAWs4EoBxjgK9R7IqBsaWbsKCR8/zb6y7iriHn/FebCUDLmQCUayfgBspv7JctNxFeV6jdvs3wryHn/FefCUDLmQCUbzTwEcJmP2U3/A8T5mq7sY8gJKjD6aVaAryyhHjVGROAljMBqI4JwDEUt2PfQOU+4JO9MUh9fZ/Or6dvlxKpOmUC0HImANUzGngr8EeKXUBoEfB7wvREn/jVn3HAXxn6dXUx4RpW9ZkAtJwJQLWtDXwYuBB4mvg/2FnALwnd/GtlrIfqbRzwXQZ+HbCEsP20g0brwwRgAG2Yu3o9cY34LoRBbCreKMI2qjsB2xM24tmAkCSMB1bq/fdmExbteRR4gLAnwU3AP4HbCb0K0nBMAT4GvBqYDCwkXF+XAT8gzBpQfcQ24m1oIxvNHgBJaid7AAbgboCSJLWQCYAkSS1kAiBJUguZAEiS1EImAJIktZAJgCRJLWQCIElSC5kASJLUQiYAkiS1kAmAJEktZAIgSVILmQBIktRCJgCSJLWQCYAkSS1kAiBJUguZAEiS1EImAJIktZAJgCRJLWQCIElSC5kASJLUQiYAkiS1kAmAJEktZAIgSVILmQBIktRCJgCSJLWQCYAkSS1kAiBJUguZAEiS1EImAJIktZAJgCRJLWQCIElSC40qOwBpEGsABwH7Auv3/m8PAhcDFwBPlBSXmmkc8DrgzcBLgLWBBcB04H+BM4BppUUnqSPXAz0RZef8IYvQO3UcMJv+f5vZwLHYk6V4KwOfBh5l4PvBIuAbhERB1Rdz7+8pIV4lZgJQP2OB8xn6b3R+72ekTo0BjgRm0Nl94TJghRLiVWdMAFrOBKB+zqDz3+nsUiJVnb2W0LU/3HvDaflDVodMAFrOBKBejmL4v9VRJcSr+lkDOJf4xqEHeGnm2NUZE4CWMwGoj30I71iH+1t1A/tnj1p1chBh4GiKxr8H+Fne8NUhE4CWMwGoh43p/D3s8soMYErm2FV944Bvkq7h73u9qbpMAFrOBKD6xhL/O/UtNwHjs9ZAVbYNcCvpG/+lZVK+qqhDJgAtZwJQfaeT/qb8g6w1UFXtDzxNcY1/D2FMgarJBKDlTACq7e0Ud2M+NGM9VD2fBhZTbOPfjVNQq8wEoOVMAKprG2Auxd2c5wE7ZauNqmIsYVpokQ3/0nJXpjppeEwABuAKairLROA8il1MZRzwS2C1Ar9D1bIC8BvgkEzfd0Wm75GSMwFQWc4EtsrwPRv1fldXhu9SuVYG/gy8KuN3/jnjd0nqkK8AqudD5Ome7VsOz1IzlWVV4GryXlPPEHqyVF2+Amg5E4Bq2Ypi3/v3V+YD22eon/KbBNxC/mvK5aerzwRgAL4CUE5jCUuwlrGJyljgp7g+QNOsAPyaMKA0t5+U8J2SOmAPQHV8nfxPacuWbxVeS+UyGvg95VxHjwAji6+iItkD0HImANWwL7CE8hOAJcCBBddVxesCzqK86+hrxVdRCZgAtJwJQPnWAB6m/MZ/aXkcWKfQGqtoX6Lca8j7Qj2YAAxgVNkBqPG6gDOoVoO7BvBj4NW04I+8gQ4Gjinx++8AbijguBMISxe/GFiXMFj2buBi4J8FfJ/UePYAlOujpHvqWkLa1wifKLDeKsZUYA7lPv2fkLhOY4HPMvCeBTcAb8FxB52yB6DlTADKMxV4lnQ33m8B3054vPnADoXVXqmtTFh6t8zGfwkwOWGdVqKz9QvuBg4jDIDU4EwAWs4EoByjgOtId+O9hTCFbyyhOzTVcW8jLBmsausCfkW5jX8PcFXiel04zDjuAt6YOJYmMgFoOROAcnyWdDfduTx/2eCtSbuY0OeT116pHU75jX8P8JmEdTowQTxX4AJXAzEBaDkTgPy2AxaQ7qb7vuV8xwcTHn8R8KJktVdqG1P+e/+lJeUro6sSxbQI+CL2ZC2PCUDLmQDkNYr4c963nD/Ad/004ffcjjfQKuoCLqP8hr8HeJB0m0pNLiC+O4FdE8XXFCYALWcCkNfnSHdD+zewygDftQpwb8Lv+6/Yyiu5lLNIYkvKpX/fWlCMC4FP4u6XS5kAtJwJQD5TSdf13w3sPoTvfGnvv5viOxcBOw679kqtSl3/PcDHEtbt6IJj/S2wWsJ468oEoOVMAPIYQRiQlOoG1snT+JcTfu+NuEBWVVxEut/1pgTH2CVh3Y5PWLf+yjRgs4Qx15EJQMuZAOTxIdLduDqdmjcWuDnh9x/Vce2V2itJ93s+BLwh8hjPknbu/aEJ6zdQeRJ4WcK468YEoOVMAIq3NjCTNDesRQzvSWtH0r1+mAtMGUYMSmME8A/S/JYLgT2Ad0ceJ/VSvNsmqt9QygLgTYnjrwsTgJYzASjeeaS7WcXMs0659sAfIuJQnENI9zse2XvMkyKP84vEdewirOqXKwlYRBh42DYmAC1nAlCs/Ul3k7qWuPfvqVcffEtELBqe8cB9pPn9zutz3O9GHuurBdT1qET1HGrpJiRXbWIC0HImAMUZQ7q12ecTZhHE2pJ0+w88CExMEJOG7ljS/HaPAKv2OW5sL9VHCqjreqTd3GqoScDrC6hLVZkAtJwJQHFOIN2N6ZMJ40o5xcq1AfKZQBi0luJ3W7b35n8jj/eG9NUFOtsIKFV5ljAuog1MAFrOBKAYGwDPkOaGlHrq3UjSrUa4ANgiYWzq35Gk+c0uWs6xY6eo7p+4rkt9JjKu4ZYZtOO6NgFoOROAYpxPmhtRN8Wc4+0JA59SxPjnAuLT840mzbv/uYQFhJYVu+7+vmmr+392j4wrptxJ2I64yUwAWs4EIL29SXcT+lqBcX49YZwHFhin0i2N298aDtdGHvcVCeva1yhgdmRsMeU8mr1scOz5Uc2ZAKQ1EriVNDefewnvfYsykXR7BdxNGPSoYlxOmt+ov8V6/hp57D0T1nVZKVfQHE5p8sJXJgADGFF2AKqd95FmtD6EPd7nJjrW8jwDfDjRsTahmJHggq0JezrEOpnw2md55kQee8XIzw/klgKPPRT/RViYSGocewDSGQ88QJqnjp9ljPvniWKeiRusFOFU4n+bOwi9U/2J3Tq6yPnzR0TGlqLcQNqljqvCHoAB2AOgThwNrJ/gOE8Dn0hwnKE6AngqwXFWBY5JcBw9ZzRpVqg7CVg8wP//WOTxN4r8/EBmFnjsodqJMK1XahR7ANJYk9Bwp3jaKKMr/SMR8fYtz5ImCVJwAPG/yc0M/jDzicjvODtBXfuT4hykKPOBTQusZxliz0mj2QOgofosaaYM3Q58P8FxOnU6ad61jie8a1Ya70xwjC8TVtQbyAOR37Fd5OcHUpXBpWMJM2ekxrAHIN4mhF3VUjxlvCpz7H3tM0BcnZRu0g2EbLNxhMF5Mb/FDIa2dfT2kd/TTXFz5mO30p4R+flly2sKqmcZYs9Fo9kDoKE4njQDhH5LuYvq/C/wmwTHGUncroUKXkn8XgtnE7quB3MHIYkdrpGkmamwPBtEfv4i4AspAun1RZq9NoBaxB6AOBsRlsONzaQXUo2lRzchNBix9VkMbJM59qb5PvG/w1YdfN+Nkd9V1Kurv0XG9RVCg31B5HH6ljcVVNfc7AFoOROAOD8gzQ2lSu8Wv0aaOp2TO/CGeYi48//XDr8v9lp+nLR7VgCsTPyS1R/vPdaKwPTIYy0tN9GMXgATgJYzARi+DUnz9D8DmJQ59oGsBDxKfL26qUavRh1tRfz5f1eH3/mOBN/56mHUdSBHJYjp5X2Otwtp/mZ7CLMT6s4EoOVMAIbvNNLcSD6aO/AhiB14tbT8KHPcTfEx4s77IsK6DJ1YL/I7e1j+ToPDtQLwSGQ8S3jheUi1w+CfEta1LCYALWcCMDzrk+ZJ4g7Sd5umkGpPg0XAlMyxN8GFxJ33y4b5vbdFfm8P6XYG/GyCWG5eznHHEKbbxh57CfXv4TIBGICzANSfj5FmfvJnCV3lVbOYEFusUTz3DlZDt3vk5383zM/9MvJ7Ac4E1ok8xkuB/0gQyx+W878tJM0eGF2JjiOVxh6Azo0HniQ+e76JaieZXcA1xNdzNmEwl4ZmMvHnfPNhfvcOCb67hzCjYO1hxrANaf6+ehh4l8JfJzj+Y1SzB2+oYuuvmjMB6NwHSXNz2j934MPwGtLU9YjcgdfYm4k713dFfv8dkd+/tNxL59sEv42QMKb4/ukMPFJ/W0JPV+z3pHrlUYbYuqvmTAA600VYMjf2D+fvuQOPcCVpbsZV7u2oki8Td66/Hfn9H4/8/r5lMWGnwV0G+L6RhNkDlyb83h7guCHUNcVOmGcM4XuqKrbuqjkTgM68kjQ3pzo8/S+VqhegCdOmcvgDcef5vZHfvwrwTGQMyyv/As4FTgGOJayodwFh/YDU3zUbWH0Idd09wXfNYOCtlqsstu6qOROAzqR4b/hP6reISOx10kNYaliDu4+487xtghi+HRlD2eU/O6jrtQm+b9cOvq9KYuutmjMBGLp1CSP2Y/9oDs4deAJvIr7eSwhLDat/KxLO03DP8VzSDEpbE5gVEUeZ5UlgtQ7qeliC7zyhg++rkth6N5rvLNXX24nv6psG/CJBLLldSBgcFqOLsNqc+rclcb1DN5JmWunjhK76OjoamNnBv38+cRshQb0HAqrF7AEYupuIz5g/kj3qdFI8KQ02MrvtDibu/J6aMJYxhIV0yn6i76RcwvCur99Efu880uwImlvs+W40ewC01PbAdpHHmEXYnrWuziEMeIqxKfDiBLE01YaRn4+dAtjXQsKrn9kJj1mkxwj7HwynYfp95HePA7aOPIYqxgRASx2S4Bg/JIyurqtnCXWIleJcNtX6kZ9/KEkUz5lO2Bei6rqBtzD8+v85QQw7JTiGlJWvAAY3kvitWRfTjDXxNyJ+IOSTpFlGuYl+Qdy5fVFBcZ0YGVeRZQmd73y4PP+OjONbCWLILfbcN5o9AAJ4GWEGQIxLCDeYuruP+KelSYT1FPRCa0V+/sEkUbzQiYR5+1V0JGlerV0X+fnhLr+sijIBEISFcGKdleAYVZGiLvslOEYTdbqFb1+LCO/Bi/Jpwvz6qjz5LQTeQ7qBj9dHfn7jJFFIGfkKYHCxI6FnEfY2b4oxwBPEnZOUg9Wa5GGGf07vyxTjwRSzUmAn5UlCz1xK+0XGNJ/6PTT6CmAAdfsxld56hN3JYvyMMICuKRYC/xN5jM1xUaDl6WQBm2XNTRbFwM4jLKF7a6bvW9afCAPuLk983HsiPz+W+G2QVSEmANqP+HnrP08RSMWkqJOvAZ5vbG8ZrhQLAA3VzYRG+FPkSzxmAYcSXsndX8Dxly7BHCPmFY6Una8ABnYe8V2Vdd4vvD8jiOuu7iEsvqLnrEjc+fxH/pCBsHbBdwiJQBHd/TOBz5GncZ0RGeseGWJMyVcALWcC0L8RhJtPzPk5K3vU+ZxG3Ll5hnqunlaU1Yg7n7Gj2GOtDnwWuJs0Df+1wFHAShnrcE9kzCkGDOdkAtByJgD924r4P5ADs0edT+ygqR5cPKWvtYk7l1flD7lf2wDHA5cy9AGjDxL2nPgU5Y0PiV3u+835Q45iAjCAJnbdauh2i/z8YuCvKQKpqMsJAwJjFvV5MeV1XVdNbG/I4iRRpHFrb/lC739fC9iC0EswHphAuHae7C33AY/kD/MFYsdRNL5RbBMTgHbbJfLz/wSeThFIRT1L6HaOee/5IsKrBMU3PjEDCIv2GMWuUZBKbBKWcyCmCuYsgHabGvn5Jj/9LxVbRzdQec68yM/nfFfeVLEPfUuSRKFKMAFoty0iP39lkiiq7YrIz2+ZJIpmmB/5+YlJomi3VSI/vyBJFKoEE4D2WoUwKCtGWQul5BRbxxTnuSkWEPcEaQ9AnBHAGpHHiN0uWxViAtBeG0R+fj7xK4vVwUPEj3OI3QK3KXqAxyM+PxEXookxifhXAE+kCETVYALQXrG7/91FtUZlF6WH+HX9Y891kzwc+Xl3pBu+zRIcwwSgQUwA2it2W9ZcG7NUwb2Rn/cVwHNiE4DYcStttlXk52fRrD0/Ws8EoL1iB1Q1efrfsmLrOiFJFM3wQOTnHVQ5fLGbfk1LEoUqwwSgvcZFfr5NCcCsyM83aavkWLdHfn7XJFG000siP28C0DAmAO0Vu6jKM0miqIfYusYmW00SO6tidzyfw7EC8ctST08RiKrDBKC9YgfwtWmTm5ilgMHV0/qKTQDGEZIAdWYP4v9m/5kiEFWHCUB7LYr8/PgkUdRDbBf+wiRRNMOTxO91v3eKQFomxaZd1yQ4hirEBKC9YhOANg1six0wGXuum+byyM+/BehKEUhLdAGvjzzG3cSt4aAKMgFor9hGacMkUdTDRpGftwfg+WITgE2J38myTfYgfuGvq1MEomoxAWiv2JHtZe1nXoYpkZ+PPddNE5sAALwrwTHa4v0JjvGnBMeQsruesJrbcMvO+UPOYjfizsti2jEOYAzhCT7mXL08d9A1cDdx53Qm7XoNNVwrA3OJ/1uP3UOgLDH17ikh3qzsAWiv2JX8RgAvThFIxb2I+NHT9yaIo2l+Ffn5VYHDUgTScB8ifhDrtbgEcCOZALTXo8Rvz7pnikAq7mWRn19M2FBIzxebAAAcjWsCDGQF4BMJjpPit1IFmQC0Vw/xvQBtmI71isjPP4izAJbn78TvC7AO8N4EsTTVYcCakcdYAvw0QSxSKRwD0L+fEP9usMk73a1BaLxjztH52aOujy8Q/472UWCV3IHXwGqENRdiz+8luQNPzDEAA7AHoN2uivz8COCgFIFU1MHE758ee46b7Ezib7JrAackiKVpTgEmJTjOOQmOIZXGHoD+7Uh8htzk5UGvI/78xG7A0nSXEn+Ou4lf575JXkw4J7Hn9QnqP9PHHoCWMwHo30hgDvF/JK/KHXgGryT+vMwnftOlpnsD8ee5B/gHnmsIDfYdpDmnn88cexFMAFrOBGBgvyb+j+Ti7FEX70/EnxcXTxncCMIWwSkarG9njr2KvkWac7mQZozvMQFoOROAgb2TNDeM/XIHXqAUT/89wPtyB15T7ybN+e6h2WNSBvM20p3HH2SOvSgmAC1nAjCwFYF5xP+h3E4ztggeBdxM/PlYRH1XT8ttNPAv0jRcs4CpecOvhO2AZ0hzDucRv3dAVZgAtJwJwOBSvAboAY7LHXgBjiXNufhz7sBr7mDSnPcewsJLk7NGX64NCGt6pDp/X88bfqFMAFrOBGBwqW6+C4BdMsee0i6EOqQ4F+/OHHvddRGmTKZqxO4AVs9ag3KsCdxFuvP2FM3quTIBaDkTgMGNIt0TxDRgpbzhJ7ESIfYU5+ARHJE+HLsTVp5L1ZjdQPxKeFW2DnAL6c5XD/CxrDUonglAy5kADM3RpLuJXEa9GsDRpBn1v7Qcnzf8RjmdtA3av4BNs9Ygj41Il7D2TZhG5qxEBiYALWcCMDQrA7NJdzP5MaFbt+q6gLNIV++5pFmBra1WJuyfkLJhexjYIWclCvYSQi9TynPUTTN39zQBaDkTgKH7CmlvKmdS7SeKkcAPSVvnb2atQTMdSNrfpAd4Fnh/zkoU5FDCAlOpz09Tl1M2AWi5a4i7ANq0lOuqhOU/U95YzqearwPGEmJLWdeZtGPgWQ6nkb6R6wEuIPQy1M1KwNkUc06upxlTeJc1lrjz4i6eDXA5cRfBq/OHXKqPkP4GcwOwcc5KDGID0o44X1qOyFmJhhsP3EQxDd7dwGvyVSXafsC9FHMuZgObZ6tJXmsSd27m5A9ZqV1M3EXQtpXFRpF+ZHEPYWvSAzPWoz8Hkmab1GXLnTTzKapMW5Jmr4r+yi+o9oI3GwG/pLj6LwHemK02+W1K3Pl5In/ISu23xF0Eh+YPuXQvBxZTzE3nPML0pdzWIX2Xf98baRM3RKqCA0izs11/5Rngq8DauSo0BOsAp1LMu/6+5aRcFSpJ7G6nD+QPWanFvjc7Mn/IlZB6QGDfMgv4HHnexa4CnAg8XWB9Ts1QjzY7kmIbwh7C8rffptxXVVOB7xIGLBZd3wsJGzE12cuJO0c3ZY9YyX2duIvgc/lDroQxhC1Wi7wJzSSMPi7iprsxYTvTpwquwy3AuALi1/Ol2uVusLIY+Auh5y/Hglar9n7XZRnqtrRcRhhj0XSvJ+48XZo/ZKV2PHEXwVn5Q66MLQnz2nPcdC8BPkB47zlck4EPEv5wU64o11+ZB2wbEa+GbgRp12sYSnmW8ArxKGB70jwxdxE27jkSuIh0S08PtVxPPVfqHI6jiDtXP8sfcl6jyg4gg8ciP79Vkijq6U7C3OlzKXZRnxHA3r0FwtrmVwO3AbcSFoaZ2VsAVustGwDbAFsTpmvmHM3cA3yI0AOg4i0hXItjgLdn+s7xwOt6C4TBozcSVuC7k3CdPkF4vfQ0YcDiYkIDO46wINRGwPqEZHqH3rJKpviXdRNh9sPskr4/ty0iP/94kihUqti93Z/KH3LlfIq8Tyl1KJ+NOqMarlHAOZT/+9etXEV43dAmfyHunB2VPWIlN4X4P54qjRAuy6mUfxOrSvlh5LlUnC7CwM6yr4O6lL8AKw7jPNfdo8SdtzfkD1mpjSKs6BRzIbw8d9AVNJIwb7rsm1nZ5Xc4378qjqS46apNKWdSzZU4i7Yq8eduu+xRqxB3EHchuMJbUMTa+XUqF9LOm2mVvYIwzqfsa6NqpRs4NuK81t3LiT9/bZgp0Qo/J+5i+FX+kCurC/ga5d/gcpcf0Y5Bs3W0McVPWa1TeRTYN+qM1t9JxJ3D2/OHrKLETgWcRbV3tSvDZ8kz1a7ssgT4T+qxtXGbjSfsxNiGa3KgchGwVuS5bIIriTuPjZ8C2Cb7E/+HtWv2qKvvdcAMyr/pFVWeBg5OdraUw8uBeyj/2sldngEOx0QVYCKwkLjzeXz2qFWYVYkfLPTp7FHXwwbA3yn/Bpi6/IOwmYjqZ0VCb0Ds4N+6lAuBDZOcuWZI8cC3V/aoVahbibsgXBayf2OAL9OMG2438A1c3rcJphK/G2iVy3SeW6RIz4ld/n0BDgBsnNOIbxjWzR51vWxH/Lu3MssNwIuTnxWV7UCaNUjwAcKS105HfaGRhJVDY87v37NHrcIdTPwf3jHZo66fLuB9hGU0y75RDrU8CRxG83dHa7MuwtbC11H+9Tbccg9hSrK9U/17FfHn+eTsUatwqxLfRX1b9qjrawLhZhWbjRdZHiesKJdjW2JVx87A6YTNnMq+BodSrgfehdNQhyLFMtEvyR61sriC+Itjp+xR19s44CPA3ZR/I11a7gE+ju/52m4t4DjCBj9lX5PLlvuALxA2utLQTCBsyBRz3mfilO/GSrGpzTezR90cOxPO3xPkv6E+DZwN7INd/XqhzYETgGsI433KaPRvBb5CGIHuNdq59xD/G5ybO2jlsyHxC4U8A6yeO/CGGQf8P+B7hG1Vi7qhTiN09R6ET/saulWA1xOS1asIf/Opr81FhJ6H0wgNl9P44nQRtjuO/V0OzB14mdq4aMTVxC/qcxLh3bHSWA/YG9iRsG/65sBkht4Vt5jQZTqNsEf7P4DLCKOlpVgjgc0Is1w2JjTWGwHrEJKFlQhrDyzdJ2I+YXzBXMIA08cI402m9yl39v7/SuMNhPUQYswmvBaaHx9OPbQxATiKME80xlOEBmp2dDTqzxjCzXZFwk12RcIKXxCeyOYQuvXnEN7pLyghRknVcB2wS+QxfkzojVGDrU7I8GK7io7LHbgk6QX2I81rmT1zB65y/Iz4i+UxnnsilSTl1wX8jfj7+Z20s0e8lfYhTcb45dyBS5L+zztJcy//ZO7AVZ5UI0YXAdtnjl2SFAZfPkT8ffwZYFLm2FWyQ0mTOV6BXUeSlNu3SHMP/+/cgat8Y4GHSXMBvTtz7JLUZjuRZsGmbmBK5thVEUeTJgF4HHcKlKQcxpJud8ezM8euChlHus1q/oqbdUhS0b5Nmnt2N7BF5thVMYeT5mLqAU7JHLsktclBpLtffz9z7KqgscC/SHNBLQb2zRu+JLXCJsAs0tyr5wIb5A1fVfVG0mWVj+HGHpKU0grA9aS7T5+YNXpV3p9Jd3FNA9bMG74kNdJIwkY/qe7PDwATstZAlbcNYUOZVBfZVXiRSVKMLuBHpLsv9xDGEUgvcDJpL7SLCbvaSZI692XS3pN/lzd81clY4DbSXnDn4vRASerUcaS9F88C1staA9XOroQ1/lNeeL8hDGKRJA2si/RP/j2E5d+lQX2G9Bff1cDqOSshSTUzEvgB6e+/v8hZCdXbCOAy0l+Et+HcU0lanhUI7+hT33cfxN3+1KH1CXP6U1+MDwAvzVgPSaq6TUg7z39pWQDsnrEeapA9gIWkvygXERaiGJGtJpJUTW8AZpL+PtsDfDRjPdRAn6CYC7MH+D2OC5DUTmNJt7HP8oo7/SmJ0ynuIn0AOCBfVSSpdDuRbkvf5ZXLCQmGFG0kYSpfURdrD/BbYHKm+khSGVYGvknYireoe+ndwBq5KqR2WBG4jmKTgLmExS9cPVBSk3QB7wAeodh76MPAlEx1UstMAm6m2Au4B7gLeDeuICip/vYD/kbx980ngKmZ6qSWWpvQQBd9MfcA/wYOw3dZkuqlC3g9xfeaLi2zgJ2z1Eyttw5wK3ku7B7CQhZHA2vlqJwkDdNE4D3k6Snt++Rv46+sVgWuId9F3kMYOHMx8C7calhSNYwgLG52OjCHvPfER4Bti6+i9EIrA5eQ94JfWmYBPwQOxhGvkvKaCOwPfJ3QQ1nGPfBOHPCnko0BfkQ5fwBLyxLgRsIf4+sI4xQkKZVVgb2Ak4ArKWaF1E7K5cBqhda4BbrKDqAhuoDjgZOpzvK+swiDFe/o/efdvf/bU8BsQlfdbODZsgKUVLqxhCnOKxEa+aX/eRNgi96yFdUaf3QO8AHCOv+KYAKQ1muAn2AnQzA7AAAB1UlEQVRmKkmpdRO2av9S2YE0hQlAelOA8wlLXUqS4j0AvBX4e9mBNMnIsgNooKeAMwnvqV6GSZYkxfglYWzTtLIDaRobp2LtDZwFbFh2IJJUM08TdmM9s+xAmsoegGLdA3yfsKTvS6jOAEFJqrKLgNcCfy07kCazByCflwDfBXYoOxBJqqgHCE/9F5QdSBv4RJrPVYTlKt8NPFZyLJJUJfMIo/u3xsY/G18B5NUD3AT8gDClZUfc6EdSe3UT3vG/mTDYb2G54bSLrwDKtTpwLPBhXNtfUnt0A/9DWDzt7pJjaS0TgGpYCXgvcAywXsmxSFJR5gLnAl/DaX2lMwGolrHA2wjLXO5eciySlMpdhFefZwEzS45FvUwAqmsq8H7Cbn/rlhyLJHXqaeBXhHf8VxDGQKlCTACqbwSwJyEROADYoNxwJKlfM4E/Auf1/tMNeyrMBKB+tgX2A/YlrC0wsdxwJLXYQuB64FLgD8A1wOJSI9KQmQDU2yjCwkJ7EDYf2pbw6mBMmUFJaqTFhBH7NwM3An8DriXM4VcNmQA0zyhgU8KuhBv3/nNtwpTDNYGVgVV6/92VcTEoqe1mEd7PzyG8t58BPE5YsOxe4N+9ZTo29o3y/wHxwkklJ8VDdQAAAABJRU5ErkJggg==;" vertex="1" parent="GKxMql-4dVrDTyN0ciHh-18">
          <mxGeometry x="16" y="319" width="72" height="72" as="geometry" />
        </mxCell>
        <mxCell id="GKxMql-4dVrDTyN0ciHh-2" value="" style="sketch=0;outlineConnect=0;fontColor=#232F3E;gradientColor=none;fillColor=#7AA116;strokeColor=none;dashed=0;verticalLabelPosition=bottom;verticalAlign=top;align=center;html=1;fontSize=12;fontStyle=0;aspect=fixed;pointerEvents=1;shape=mxgraph.aws4.mqtt_protocol;container=0;" vertex="1" parent="GKxMql-4dVrDTyN0ciHh-27">
          <mxGeometry x="17" y="25" width="78" height="78" as="geometry" />
        </mxCell>
        <mxCell id="GKxMql-4dVrDTyN0ciHh-3" value="" style="sketch=0;outlineConnect=0;fontColor=#232F3E;gradientColor=none;fillColor=#7AA116;strokeColor=none;dashed=0;verticalLabelPosition=bottom;verticalAlign=top;align=center;html=1;fontSize=12;fontStyle=0;aspect=fixed;pointerEvents=1;shape=mxgraph.aws4.mqtt_protocol;container=0;" vertex="1" parent="GKxMql-4dVrDTyN0ciHh-27">
          <mxGeometry x="17" y="322" width="78" height="78" as="geometry" />
        </mxCell>
        <mxCell id="GKxMql-4dVrDTyN0ciHh-4" value="" style="sketch=0;outlineConnect=0;fontColor=#232F3E;gradientColor=none;fillColor=#7AA116;strokeColor=none;dashed=0;verticalLabelPosition=bottom;verticalAlign=top;align=center;html=1;fontSize=12;fontStyle=0;aspect=fixed;pointerEvents=1;shape=mxgraph.aws4.mqtt_protocol;container=0;" vertex="1" parent="GKxMql-4dVrDTyN0ciHh-27">
          <mxGeometry x="17" y="175" width="78" height="78" as="geometry" />
        </mxCell>
        <mxCell id="GKxMql-4dVrDTyN0ciHh-20" style="edgeStyle=orthogonalEdgeStyle;rounded=0;orthogonalLoop=1;jettySize=auto;html=1;strokeColor=#000000;" edge="1" parent="GKxMql-4dVrDTyN0ciHh-27" source="GKxMql-4dVrDTyN0ciHh-1" target="GKxMql-4dVrDTyN0ciHh-2">
          <mxGeometry relative="1" as="geometry">
            <Array as="points">
              <mxPoint x="219" y="214" />
              <mxPoint x="219" y="64" />
            </Array>
          </mxGeometry>
        </mxCell>
        <mxCell id="GKxMql-4dVrDTyN0ciHh-21" style="edgeStyle=orthogonalEdgeStyle;rounded=0;orthogonalLoop=1;jettySize=auto;html=1;strokeColor=#000000;" edge="1" parent="GKxMql-4dVrDTyN0ciHh-27" source="GKxMql-4dVrDTyN0ciHh-1" target="GKxMql-4dVrDTyN0ciHh-4">
          <mxGeometry relative="1" as="geometry" />
        </mxCell>
        <mxCell id="GKxMql-4dVrDTyN0ciHh-22" style="edgeStyle=orthogonalEdgeStyle;rounded=0;orthogonalLoop=1;jettySize=auto;html=1;strokeColor=#000000;" edge="1" parent="GKxMql-4dVrDTyN0ciHh-27" source="GKxMql-4dVrDTyN0ciHh-1" target="GKxMql-4dVrDTyN0ciHh-3">
          <mxGeometry relative="1" as="geometry">
            <Array as="points">
              <mxPoint x="219" y="214" />
              <mxPoint x="219" y="361" />
            </Array>
          </mxGeometry>
        </mxCell>
        <mxCell id="GKxMql-4dVrDTyN0ciHh-23" value="&lt;font color=&quot;#000000&quot;&gt;Iot/Device/Status&lt;/font&gt;" style="text;html=1;align=center;verticalAlign=middle;resizable=0;points=[];autosize=1;strokeColor=none;fillColor=none;" vertex="1" parent="GKxMql-4dVrDTyN0ciHh-27">
          <mxGeometry x="2" width="109" height="26" as="geometry" />
        </mxCell>
        <mxCell id="GKxMql-4dVrDTyN0ciHh-24" value="&lt;font color=&quot;#000000&quot;&gt;IoT/Device/Data&lt;/font&gt;" style="text;html=1;align=center;verticalAlign=middle;resizable=0;points=[];autosize=1;strokeColor=none;fillColor=none;" vertex="1" parent="GKxMql-4dVrDTyN0ciHh-27">
          <mxGeometry y="148" width="104" height="26" as="geometry" />
        </mxCell>
        <mxCell id="GKxMql-4dVrDTyN0ciHh-26" value="&lt;font color=&quot;#000000&quot;&gt;IoT/Device/HVAC&lt;/font&gt;" style="text;html=1;align=center;verticalAlign=middle;resizable=0;points=[];autosize=1;strokeColor=none;fillColor=none;" vertex="1" parent="GKxMql-4dVrDTyN0ciHh-27">
          <mxGeometry x="1" y="296" width="111" height="26" as="geometry" />
        </mxCell>
        <mxCell id="GKxMql-4dVrDTyN0ciHh-31" value="" style="image;aspect=fixed;perimeter=ellipsePerimeter;html=1;align=center;shadow=0;dashed=0;spacingTop=3;image=img/lib/active_directory/database_server.svg;" vertex="1" parent="GKxMql-4dVrDTyN0ciHh-47">
          <mxGeometry x="71" y="157.29000000000002" width="93" height="113.41" as="geometry" />
        </mxCell>
        <mxCell id="GKxMql-4dVrDTyN0ciHh-37" style="edgeStyle=orthogonalEdgeStyle;rounded=0;orthogonalLoop=1;jettySize=auto;html=1;strokeColor=#000000;" edge="1" parent="GKxMql-4dVrDTyN0ciHh-47" source="GKxMql-4dVrDTyN0ciHh-32" target="GKxMql-4dVrDTyN0ciHh-31">
          <mxGeometry relative="1" as="geometry" />
        </mxCell>
        <mxCell id="GKxMql-4dVrDTyN0ciHh-32" value="" style="verticalLabelPosition=bottom;html=1;verticalAlign=top;align=center;strokeColor=none;fillColor=#00BEF2;shape=mxgraph.azure.script_file;pointerEvents=1;" vertex="1" parent="GKxMql-4dVrDTyN0ciHh-47">
          <mxGeometry x="270" y="189" width="47.5" height="50" as="geometry" />
        </mxCell>
        <mxCell id="GKxMql-4dVrDTyN0ciHh-33" style="edgeStyle=orthogonalEdgeStyle;rounded=0;orthogonalLoop=1;jettySize=auto;html=1;entryX=0.5;entryY=0;entryDx=0;entryDy=0;entryPerimeter=0;strokeColor=#000000;" edge="1" parent="GKxMql-4dVrDTyN0ciHh-47" source="GKxMql-4dVrDTyN0ciHh-2" target="GKxMql-4dVrDTyN0ciHh-32">
          <mxGeometry relative="1" as="geometry" />
        </mxCell>
        <mxCell id="GKxMql-4dVrDTyN0ciHh-34" style="edgeStyle=orthogonalEdgeStyle;rounded=0;orthogonalLoop=1;jettySize=auto;html=1;entryX=1;entryY=0.5;entryDx=0;entryDy=0;entryPerimeter=0;strokeColor=#000000;" edge="1" parent="GKxMql-4dVrDTyN0ciHh-47" source="GKxMql-4dVrDTyN0ciHh-4" target="GKxMql-4dVrDTyN0ciHh-32">
          <mxGeometry relative="1" as="geometry" />
        </mxCell>
        <mxCell id="GKxMql-4dVrDTyN0ciHh-36" style="edgeStyle=orthogonalEdgeStyle;rounded=0;orthogonalLoop=1;jettySize=auto;html=1;entryX=0.5;entryY=1;entryDx=0;entryDy=0;entryPerimeter=0;strokeColor=#000000;" edge="1" parent="GKxMql-4dVrDTyN0ciHh-47" source="GKxMql-4dVrDTyN0ciHh-3" target="GKxMql-4dVrDTyN0ciHh-32">
          <mxGeometry relative="1" as="geometry" />
        </mxCell>
        <mxCell id="GKxMql-4dVrDTyN0ciHh-38" value="&lt;font color=&quot;#000000&quot;&gt;Database Server&lt;/font&gt;" style="text;html=1;align=center;verticalAlign=middle;resizable=0;points=[];autosize=1;strokeColor=none;fillColor=none;" vertex="1" parent="GKxMql-4dVrDTyN0ciHh-47">
          <mxGeometry x="56" y="276" width="108" height="26" as="geometry" />
        </mxCell>
        <mxCell id="GKxMql-4dVrDTyN0ciHh-40" style="edgeStyle=orthogonalEdgeStyle;rounded=0;orthogonalLoop=1;jettySize=auto;html=1;strokeColor=#000000;" edge="1" parent="GKxMql-4dVrDTyN0ciHh-47" source="GKxMql-4dVrDTyN0ciHh-39" target="GKxMql-4dVrDTyN0ciHh-38">
          <mxGeometry relative="1" as="geometry" />
        </mxCell>
        <mxCell id="GKxMql-4dVrDTyN0ciHh-41" style="edgeStyle=orthogonalEdgeStyle;rounded=0;orthogonalLoop=1;jettySize=auto;html=1;strokeColor=#000000;" edge="1" parent="GKxMql-4dVrDTyN0ciHh-47" source="GKxMql-4dVrDTyN0ciHh-39">
          <mxGeometry relative="1" as="geometry">
            <mxPoint x="32" y="596" as="targetPoint" />
          </mxGeometry>
        </mxCell>
        <mxCell id="GKxMql-4dVrDTyN0ciHh-42" style="edgeStyle=orthogonalEdgeStyle;rounded=0;orthogonalLoop=1;jettySize=auto;html=1;exitX=1;exitY=0.5;exitDx=0;exitDy=0;strokeColor=#000000;" edge="1" parent="GKxMql-4dVrDTyN0ciHh-47" source="GKxMql-4dVrDTyN0ciHh-39">
          <mxGeometry relative="1" as="geometry">
            <mxPoint x="183.9354838709678" y="597.516129032258" as="targetPoint" />
          </mxGeometry>
        </mxCell>
        <mxCell id="GKxMql-4dVrDTyN0ciHh-43" style="edgeStyle=orthogonalEdgeStyle;rounded=0;orthogonalLoop=1;jettySize=auto;html=1;strokeColor=#000000;" edge="1" parent="GKxMql-4dVrDTyN0ciHh-47" source="GKxMql-4dVrDTyN0ciHh-39">
          <mxGeometry relative="1" as="geometry">
            <mxPoint x="110.00322580645161" y="600.741935483871" as="targetPoint" />
          </mxGeometry>
        </mxCell>
        <mxCell id="GKxMql-4dVrDTyN0ciHh-39" value="" style="shape=image;verticalLabelPosition=bottom;labelBackgroundColor=default;verticalAlign=top;aspect=fixed;imageAspect=0;image=data:image/png,iVBORw0KGgoAAAANSUhEUgAAAgAAAAIACAYAAAD0eNT6AAAABHNCSVQICAgIfAhkiAAAAAlwSFlzAAAOxAAADsQBlSsOGwAAABl0RVh0U29mdHdhcmUAd3d3Lmlua3NjYXBlLm9yZ5vuPBoAACAASURBVHic7d15kBzXYef5Xx519d1oAN2NS7gIUAQkekgCEA/Rh2gOD5u0VqOR5A2NDmtGkndX3nGEx+s/NoL2HxO7Y49nrF0FpZBHh2V7LWs8kiiBpHjYsgkeIAhZFAmSuJokzu4G+q7uOjPf/gFCakJooLsrq15l5fcTwX+Iqpcvs6rr/d6RLyUAAAAAAAAAAAAAAAAAAAAAAAAAAAAAAAAAAAAAAAAAAAAAAAAAAAAAAAAAAAAAAAAAAAAAAAAAAAAAAAAAAAAAAAAAAAAAAAAAAAAAAAAAAAAAAAAAAAAAAAAAAAAAAAAAAAAAAAAAAAAAAAAAAAAAAAAAAAAAAAAAAAAAAAAAAAAAAAAAAAAAAAAAAAAAAAAAAAAAAAAAAAAAAAAAAAAAAAAAAAAAAAAAAAAAAAAAAAAAAAAAAAAAAAAAAAAAiIZjuwJX8yf3f+U6P+t+0nXcG11Xmz03tVJS2nNdT3Icp+nPAABQF0YyMgpNqDAMVQ2qqgYVlYOKypWKwjCodw0qkvKSmZScCUmHJec1x+iQqVaeeuCx3xutdwVq0ZTN559+5Csf8x3/cynPv85z/WxTVhIA0LSMpGpQValSVKFYULlatlGFQzJ6TDL/3wMP/+4Lja7A1TRN2/rgB7++tuqZL/qpzK/6rpexXR8AQOuoVKsqlGaVL87JmNBCDcwrkvPVnFf+0u8/9PszFirwc6wHgP/0oS9tybjZr+RS2fcyoA8AqCdjjPKFGc0U8jLG2KjChBx9PmMyf/YHe397wkYFLrLW4D4g4/Z++OsPZtPZT7mO69qqBwAgecIw1PTcjGaLeVtVGHcc80fmpun/54EHHrAxJGEnAPznf/Xn72vLZL/t++lOG8cHAECSypWyxvPjCoK6LxhcyNNe6H3s/3zkc8cbfeCGB4D/+q+/+n+1ZXL/wXFdhvsBANYZE2oiP6VCac5WFWYk8+8e2Pu7f9PIgzasEX7ggQf8vtc2PZ/N5P5Fo44JAMBi5Yt5TeWn7FXA6E+1e+r3GjUl0JAA8IUPfqHDpLpezqQy72jE8QAAWI654pwmZicu3MRng+P89eDZ3Mc/ffDTlbofqt4H+MIHv9Bh/K6hTDqzqt7HAgCgVsVyUWMzY/ZCgLR3cLjt/fUOAXVdff+AjGv8zh/T+AMA4iKbzmpFxwqbVbj37MDc1x944IG6ttF1Lbzvw3/xQiad3VLPYwAAELVcJqeu9m6bVfiIDnT/3/U8gFevgv/sw1/701ym7f31Kh8AgHrKpNJvPV+gaqsKt/zyNXcd+eHRH7xcj8Lrsgbgz/71f/vlXKbjScdlZz8AQHyZMNTo1DmbIWBK0g0P7P33Q1EXHPkUwAMybjqV+S6NPwAg7hzXVW9Hj80qdEv6mmQib1MjDwA9H/r6V9nhDwDQKtKpjNoybTar8N4/vPe//JuoC400UfynD31pS3em+4jNvf3NijFVrntZ4dpTMp0XNnRwZrrlnlov/7Udcsf6OD4AYEnCMNDIxKhCK08SlORoVL62P/Cdfz8ZVZF+VAVJUtbJfdVa4+8GKt/2T6pe97LkvP3mTbNiTOGKMVXf9aL8Q+9S6pn3ygkiXv+Y9OMDQAtzXU8duXZNz1l6kq/RalWcz0n6o6iKjGwE4MEPfn2tl8uetPJIXzdQ6de+q2DtqcW9/PQ6ZfbeH10jmPTjA0AChGGo4YkRGVujANJ4zitv/P2Hfj+SFBJZb73qmS9aafwllW/7p0U3fpIUrj2l6s37OD4AYNFc11W73bUAKwph+t9GVVhkAcBPpe+IqqylMCvGLgx7L1Fl508Urhjj+ACARWvLttutgDG/FVVRkQSAP/3IVz7mu342irKWqnKZOe9FcYyCaw9xfADAoqV8Xyk/bbEGznV/dPd/juSpupEEAN/xPxdFOcsRrju57PcGNbyX4wNAMuUyOavHD133N6MoJ5IAkHL9HVGUsxxhx/LXQpiu2tdRJP34AJA02VTGdhUimXKvOQD8yf1fuc7zfGtXw6nlRoYIHvWY9OMDQNL4fkquY227G0m6/oFf/5OVtRZS8xn4WfeTNvf8dfIdy3/vTO0bFib9+ACQNI6kTNrqKICj0Lu91kJqDgCu69xUaxk1Hf/khuW/99Ty38vxASC5fC/SffSWzJFqnnqvPQA4zqZay6iF/9qO5T0jwTjyX6196ULSjw8ASZSyHACMtL3WMiIYAfBqnoeo6fhjffIPvWvJ7/NffrfciRUcHwCwZL6XslsBo221FlF7AJBr84ZISVLqmffKO7V+0a93T61X+pn3cnwAwLK49p55d4Fj7C8CdBzH+obyTuAp/fB9Sr10/ZWHw40j/6Xrld17vxRG9+El/fgAkDSWdr6fX4OaV3HXPInhuNavgqQLjWBq3y/Ke2WngmsPKVh3UmHXtCTJne6Se2qD/Fd31G3YO+nHB4AkcaN7lt5yNUEAsH8R3sYd75P7zO2yNTuT9OMDQCLY7/vWfB8i48AAACQQAQAAgAQiAAAAkEAEAAAAEogAAABAAhEAAABIIAIAAAAJRAAAACCBCAAAACQQAQAAgAQiAAAAkEAEAAAAEogAAABAAhEAAABIIAIAAAAJ5NdawLeOfz2KegCIoe4NW2xXAbBmauq47SrUhBEAAAASiAAAAEACEQAAAEggAgAAAAlEAAAAIIEIAAAAJBABAACABCIAAACQQAQAAAASiAAAAEACEQAAAEggAgAAAAlEAAAAIIEIAAAAJBABAACABCIAAACQQAQAAAASiAAAAEACEQAAAEggAgAAAAlEAAAAIIEIAAAAJBABAACABCIAAACQQAQAAAASiAAAAEACEQAAAEggAgAAAAlEAAAAIIEIAAAAJBABAACABPJtVwD1sfIXqlqzp6wVawOl00a+b+Qs8r1GUhA4qgSOpouuJud8zZYbmBWNFBakIO+ofNJR4Ziryshiaw8AWAwCQIvpubaqHR8oqae3uuwyHEm+Z+R7Rrl0qP6uqqaLnk5NpFSsNCAIOJLbJrltRqnVRu03hiq94Wh6n6/qeP0PDwBJwBRAC9lwZ0U3/9ZcTY3/Qrqyga4dKKq3PfqyFyOz0WjlhyvKbjFWjg8ArYYA0CI23FnRzjvn5Dr1ayBdR9rYV1ZPzk4IcHyp956qslsJAQBQKwJAC+i5tqodv1pY9Bx/LRxdCAHZlKVG2JF67qzK7yUEAEAtCAAtYMcHinXt+V/KdaV1PeWGHe9Sji91vje0dnwAaAUEgJhbeX1VPb1Bw4/blQvUnrbXCGc3hkr1MwoAAMtFAIi5Ne+x1xPvaWt88Jgvu4VRAABYLgJAzK1YY68R7szYbYAz6xkBAIDlIgDEXDprrxFM+XYDgNdJAACA5SIAxJjjSimLn2DKVUPuPFiIm5PdCgBAjBEAYiy7MpQauPr/5zhGnmfv8HIkN2vx+AAQYwSAGOvaaHcRniRlLU8D+L0sBASA5SAAxNjK6+zsyDdfR8ZuCEmvs3p4AIgtAkBMOa40uM1+AOjrCKxOw7e9M2AdAAAsAwEgpjbeW1LG4kY8F2X8UD2WHhAkSV63lNtu/zoAQNzwOOAa+O3SwJ6yOvpDpTtDhaGjcsHR1Jinwkz9slU6a3TNraW6lb9U63oqmil6qgb164pn/VAd2VApz8h1jKqBq2LV0UzRVddtgVJ9jVsMaYwUzjmqTjkqn3JkKg07NABEhgCwDF0bA137gaL6BqpyF2jzilVXw1O+xuc8yUTXMLqO0TWry0r5zXMPfMoz2ryypOOjWQURVsuRtKKjqoHOqjKpy/fyQyNNzvk625VSqdr4uQBTdVQ86mhmv6tgmrkIAPFBAFii7R8passNJTlX+a3P+qE29pW1usPT0Pm0yhH0jlP+hYbW5h78C+nIhNraX9Tr5zINPVfXkVa0V9XbFuj0ZEqjM439Sju+Ue6dRrltoab3eZp9kVk1APHAr9VieUY3/c6ctt549cZ/vrZMoO0DRbXXsG2u6xit7qzquoFCUzb+F7WnQ71zsKDVnQuPjCyqnEyoa/uLSzpXxzFa11vWhhVlO3sjeFLXLwbq/hUWJQKIB0YAFsMz2v07Ba1as7zJ3pRndM3qok6OpzU+62uxzVPaN1rZXtHKzkC+2zxD/lfiudK63rIGuis6P+Pp/GxK5UUOzV8c8l/fW152gFjZUZUj6c2JVKRTL4vVtjOUk5Ymf+Bp0R80AFhAALiaGhv/i1xHekdfWX3tVY1MpzRVci/bQDmO1JUN1NdRVXfO7i12tfBdo4Huqvq7q5oqeBrL+5oueJdvEx2j7myo/q6KOiJ4wFBfx4W7EmyFgNy2C+dACADQzAgAVxJR4z9fRzZUR7akaiDlS57KgasgkFxXyqZCtacD+Ta3142YI6knF6gnF6gaSLNlT8WKqzCUPO/CKEdHuhr5ORMCAODKCAAL8Yx2fS7axn8+35N62gJJ9rfzbRTfk7pzgbpzjTnnvo6qXNfojfMZK20wIQBAM2MR4OW81fivXssN3nHX2xZo48qStamU3LZQPf+ShYEAmg8B4FI0/i2HEAAAP48AMB+Nf8siBADA2xEA5rnpf6Xxb2W9bYHWryhbO35uW6juX07Omg8AzY0A8JbtHymqfz2Nf6tb2VHVqg57Dy9q2xmq/frm3cwJQHIQACR1rDfacoO9niEaa11vRWmLz1Loui2Q381tAQDsIgBIuu6DBTk2to+FFY5jNNhtMfB5UvtuRgEA2JX4AOC3GfUN2hsShh29bYFci6Evd42Rk7J2eABgI6D+PVWrDQHscB2pMxNqqmhn20XHN0qvNSq9wW0B87X3FdW/85x61uWV7SrJXeAx0HERVlwVpzOaPNmp4UN9mhvL2a4S8FOJDwCda1iVnVSZVChZCgCS5PcSAC5yPaNNt5/U4M4xO09zrBM3Faqtr6C2voIGrx/V8EurNPTUWpkg8YOvaAKJDwDp9tb5scHS2H7mgtfGd0+60PjvuP+YutfN2K5KXTmONPjuc8r1FnTooa2EAFiX+G9gsMhH1aL1GMujy2GF754kbb79VMs3/vP1rM9r821nbFcDIACUJvgRTqpyYPezD/JWD98U2vuKGth53nY1Gm7g3aNq6yvYrgYSLvEBYOSfWYqdVPmS3a9/+Qzhs3/nuZaa818sx5EGrhuzXQ0kXOIDwMwbroolfoiTplhxVara+/pXxxwFk3zvetYnZ+j/Uj0bknvuaA6JDwCSNPRc1nYV0GDD03ZHfvIH+NOTpExncnfgzHQl99zRHPgVkvT6wynlZ7kUSTFbcjU+Z+/zLg87Khzl+3ZBgkdBkjfzgSbDr5AkBY6ef7BDFYtDwmiMSuDo9fMZydhpeMI5aeJhnx//t5RmkrsGpzSTtl0FJBwt3lsKw45+9M2cQksNA+ovNI6GzmWsrf43VUfj3/cVsvr/pyZPdNmugjUTJzptVwEJRwCY5/w/+zq8j/UArerEeEqzZXtf+al/cFUZJmDON3yoTyaBoyHGSCOHVtquBhKOAHCJ17+X1vSM5S3iELmZoqfxWXsbX5ZPOSq8yp/bpebGchp+aZXtajTc2Z+s0tw4nQ3YxS/SJUwoHf+HjO1qIGLD03Z3vc4f5E9tIUNPrdXkyeQMh0+e7NTrT62zXQ2AAHA5Z572VbW8SxyiUw0c5S0+9Ceck0on+FNbiAlcHXpoi86+uLqlpwOMkc68uEqHvrtVJuT3BfYl/mFAlxU4mhp31beKJwW2gpmSa3XRffmMy6r/qzCBq+P/uE5nX+7TwHVj6tkwo0xXSV7MHwccVFyVpjOaONGpkUMrGfZHUyEALGBukgDQKsqWb++sTlo9fKzMjeU0xPA40BCMSy4gYHvglhFY7kQanvoHoAkRABbgsUdHy/Asf8udFOP/AJoPAWABHX0M/7eKrG93CMBfYfXwAHBZBIDLcHypsyfei4/wM23Z0OqO8+mBkL80AE2Hn6XLWHNrWb7HsG2rSLlGnTl7Izpum5TdQKAE0FwIAJfxjlsqtquAiK1qr1o9fttOAgCA5kIAuET7ukA9fXYbC0Svqy1Q2rc3qpPZZOQlZ7M7ADHAPgCX2HJXueWeUF55aye8ubKruYqrSuCoEkhB6MhzjRxJvielvFC5lFFbOlBnNlSqhaZBHEkrO6o6M2np8bOO1PauUDPPkLkBNAcCwDx+m9HgNa0x/F8NHY3nPU0UfM2WHWmBxxwHb21JWg2lYsXTTFGSfDmS2tKhetsD9bVXrN9KF4W+jqqGp1IKLeWath2B8gdcmdb4igGIOQLAPFvuK8V+8V8lcDQ8ldLYnK+whmlnI2m27Gq27OrMVEor26vq764o5cb3+qRco772qs7l7Xzt3ZzUdl2o2RdbIE0BiD0CwFva14baeEPJdjWWzRhHIzO+RqZSCiJuo8NQGp3xNZb3NdBd1uquamynSdb0lDVV8FS29LCnjpsDFYccBTNxvYIAWgVdEUl+p9FN/25WfkyvRrHi6LWRjM5MRt/4zxcY6fRkWkeGsypZ3l9/uTxX2rSqJM9S++umpd57AjnsNAnAsnj+ikcot9ro1t+dVUd7PG/TmpzzdHg4p0K5cR/lbNnVa8NZTRXsPWK3Fu3pUFtWF61N96T6jVbcX5XbZuXwACApyQHAM9r062W993dn1NEZz21/z+V9vX4+U9de/0KCUHr5H3MaORvPWaSOTKh3DhS1os3OdEZ60GjVRyrKbQ8V2/kUALEWz1/vZXBcKdtn1LWpqpU7Ag1eU1EmHc9ev3Sh8T85bm8cee5lV1P/4Ong37frxv99Vv1r4rd3Qsoz2riyrMFqVWOznvJFT6WKo2roqBGZym2Xev5loM49oQqvOSqdclSddBUWpIZUAECitWwAWHl9VWv2VLRiXVXptJHvm5bpaE3OeTplsfEvDl1o/GUkY6Qffb5d7/n9vHp74zmSkvFDrekOpe4L9+cZSdXAUSVwNF30NFlwNVeq33SH12PU8R6jDklSIBkpLEhB3lH5pKPCMVeVkVb59tZXe19R/TvPqWddXtmuktxUfEO+JIUVV8XpjCZPdmr4UJ/mxnJ1PV7/YL9u3HODNm/dqt4VPUqlLe2bEZFKuaKJ8UkdP3pcB/e/oNHhUdtVaio1/6rcedu9TdVX6bm2qh0fKKonpo3R1RQrjg4P56wM+0tSdUIa+2ZKYfnt/z/dY3T7f8jHelTlSqaKnk5PpFSs2Jk1K73haHqfr+q4lcMvqHvDFttVkCS5ntGm209qcOeY5DTVT1JkjJGGX1qloafWygTRfg9939dd992lXTfvkuO0ZtgMw1AvPHtAjzz0qIIgmvZh6sTxSMpZrsf27a3pw2qpNQAb7izr5k/OtWzjbyS9PmZnzl+SFEqTj/o/1/hLUnnS0Y//LteyI9fd2UDX9hfVk7Mz1ZHZaLTywxVlt7bqFV4+1zPacf8xDb7rfMs2/pLkONLgu89px33H5HjRBW3f9/XRT31Uu2/Z3bKNvyS5rqvdt+7RRz/1UXlePBcwR61lAsCGO8vaeWdBbow3qrmakelUQ1f7X2r2x64q5xb+gTh/0NeZ4/EeMrwS15U2r6xYCwGOL/XeXSUEXGLz7afUvW7GdjUapmd9XptvOxNZeXfff7c2bd0UWXnNbvM1m3XXfXfZrkZTaIkA0HNtVTvuKLbMHP/lVAJHI1P2Gtdg1tHMc1dPzYf+KquqpU12GsIx2thXVjZlqRF2pJ47q/J7CQHShTn/gZ3nbVej4QbePaq2vkLN5fQP9uum99wUQY3iZdfNu7R6YJXtaljXEgFgxweKLd3zl6Th6fpu8nM1sz9yZBbR8a1Mu3rjxUz9K2SR60rrei4zD9Igji91vrc111osVf/Ocy097L8Qx5EGrhuruZwb99zQ0sP+C3FdVzfuTl7wuVTsA8DK66stO+d/URBKY7P2btgIC47mXl78V2XoobSCFm+funKB2i0ueMxuDJXqT17Dd6me9ckZ+r9Uz4baz33LNc2xiNOGLduSe+4XxT4ArNnT+o9WG8vX9mCfWhWOODKVxfcSKnlHIydady3ART1tdoNndkuLp6xFyHTaG4mxLdNV+7l39/REUJN46u5N7rlfFPsAsGJd/DagWaoJy1vuFo8s/Wty+tnWDwCdGbsNcGY9IwCJ3kYxgo8/0d8gk+izl9QCASCdbu0PsRI4mrW48j/IOyoPL/1HdvTHvirV1v5xTvl2A4DX0drf/cUozbR+0FxIaab2zcCmJycjqEk8TU1O2a6CdbEPAKkWv50zX/QkY68hLZ91ltdNCBxNjbXsRpOSpJTlvx4eJiRNnuiyXQVrJk501lzGsSNDEdQkno4dPma7CtbFPgC0+grgOYu9f0mqDC//vZOnWzydtfh3Lw6GD/UlciTXGGnk0Mqayzm4/wWFNhcYWRKGoQ4+/yPb1bAu/gGgxc1Z2nr2osr55R9/5hRfL9TX3FhOwy8l737usz9ZpbnxbM3ljA6P6oVnD0RQo3h5/pn9OjfCcwH4hW5yZct3OIb55b939kyLjwCgKQw9tVaTJ2sfDo+LyZOdev2pdZGV98hDj2roWHKmAoaOHtej33vMdjWaAgGgydneVS+YW/7xi2OtvQgQzcEErg49tEVnX1zd0tMBxkhnXlylQ9/dKhNG97cVBIG+8eVvaP/T+1t6OiAMQz2371n9xZ//pcKIHgYUd629SqsFhBYXAEpa1O5/Cwlbf4sGNAkTuDr+j+t09uU+DVw3pp4NM8p0leTF/HHAQcVVaTqjiROdGjm0MpJh/8seJwi099t7deDZ53Xj7pu0ZdsW9fT2KJ2x99jxKJRLZU1OTOrY4WM6+PyPGPa/BAGgyTkyMhbvdXZcI7PMUQgCABptbiynoQiHx5NmdPicHnnoEdvVQIMwBdDkXMuj6I63/AqkOiKsCAAgUgSAJufZvtc8u/xJ1exq5tkAoFkRAJpc2vZuc93LDwBtffGefwWAVkYAaHI5W8+df4tfw/MyejYyAgAAzSr+AcDyKvl6a0vbbURTg8sPIF1rWnwEoMW/ewBaW+wDQKXFO5md2dDq887Sa82yHrjmuFJXX2t/OBXL+Sacs3t8APEW+wBQLrd2LyzlGbWl7bU0XrtRemDpowCrb6wo5bXwriySKlW7fz5BvrW/+wDqK/YBYPxU629l0Ntew248EchuW3oAWbO79TcBmCnZ/fMpnYj9ny8Ai2L/C3L6+dZ/Hnhfe1WuxU8q985QzhI2BEt1GvW/w25oaYSJObvPOigeZwQAwPLFPgCM/djXxERrP3TGc6WV7fZ61G5aatu5+FGAzfeV5bmtPfw/VfCsPqq5+LqryigBAMDyxT4ASNIr32pTCz/DQpLU311VDZvy1azjplBu5uqNerpLese7Sw2okT2BkU5P2Bt5MmVpZl9rh14A9dcSAWDyiKtDj+da+raslGs00G1xFCBr1LHn6inrnb9ZaO3Ff8bRm2MZFW0tADTS5GOeqhN2Dg+gdbREAJCkE4+n9dJj2ZYeCVjdVVG7xTsC2q8Plb7Cvf0rr69q7ZZyA2vUWIGRhsbSmrQ0928qjib2eioOtcyfLQCLWuqX5MTjaT3z5Q5NjLfmnQGOpI0ry/aeD+BIPXeGcjI//0+pLqNf+FBBTosOwkwVPB0+m7XW+Jded3T+b3wafwCRabmWcuqop2f+Y7tWXl/Vmj0VrVgbKJ0JlfIkOfEfms74oTb1lXT8XEY2zsbrMuq9t6qJ7/gybw0GOJ6063+ZVcbi6ESkjKNKeOE+/5mSq4m5Bi/4Mxc2+QnyjkonHRWPseAPQPRaLgBcdP5FX+dfnHd6nlG2R+raGGjljqoGt5eVXcSitmbUlQu0YUVZJ8bTVkJAZp1R9x2BJh/35DjSDf/brHpjvOtfseJofC6lfNFVseKoatTQ9STVSUeFVxyVT7uqTjoKi5KVD7YFtPcV1b/znHrW5ZXtKslNxTuUhhVXxemMJk92avhQn+bGcnU9Xv9gv27cc4M2b92q3hU9SqXjfZt1pVzRxPikjh89roP7X9Do8KjtKjWVmn/l7rzt3lj+VDmu9I67y9r23qJSfixPQWN531oIkKTiUVdbtpXUvz6em/5UAkenJ9OamPWsXMNg1tHMU64KR93YNvjdG7bYroIkyfWMNt1+UoM7x1pipO9yjJGGX1qloafWygTRjkj5vq+77rtLu27eJadF5/HCMNQLzx7QIw89qiCIpsMydeJ4JOUs12P79tb0YbXsCMDVmFB6Y29aIwc87frtOXV2xK+n0NdRVcozemMsrWrY2D9azzXacUtB3bl49vzzJU+vn0ur0uDrdlH5tKOJR3z284+A6xntuP+YutfN2K5KXTmONPjuc8r1FnTooa2RhQDf9/XRT31Um7ZuiqS8ZuW6rnbfukcrV6/SN/78G5GFgDhL/IqiwqinZ/+4Q/nZeF6KrlygaweKDb07oD0d6tqBUmwb/9myq2PnMvYa/2FH49+l8Y/K5ttPtXzjP1/P+rw233YmsvLuvv/ulm/859t8zWbddd9dtqvRFOLZ6kWsMuvohS+2K66BMO0bbRsoal1PWW4dhz89V1rbU9G2/qIyfvxGTCQpCKWhcxlrt4uGZWniYV+m9XdKboj2vqIGdp63XY2GG3j3qNr6CjWX0z/Yr5vec1MENYqXXTfv0uqBVbarYR0B4C2zZ10NHczarsayOZJWd1W1c01B/Z3R7hrouUaru6q6bk1B/V2VWN/qd2YqpUpg7wTyz3gK89YO33L6d55r2Tn/K3EcaeC6sZrLuXHPDS07538lruvqxt3JCz6XSuwagMs5/v20Nt5YivVOdr4nre0ta6C7rPHZlMZnPc1WnCWvancktWcC9bQF6msPWmJv/2roaCxvb1VzOCfNvZK8H9t66lmfnKH/S/VsqP3ct1zTHIs4bdiyLbnnfhEBYJ5gztHZYylt2B7/3ew8V1rV1n+kNgAAIABJREFUWdGqzooqgaN8ydNsyVGx6qlcdVR9a7ojCB35rpHnGaU9o7Z0qLZ0qPZsqFQLNPrznZ/xFFo8pbmXXZkqASBKmc74/60uV6ar9nPv7umJoCbx1N2b3HO/iABwiaGHM1q/vVz7/ZFNJOUZ9bZV1dsmSfG8Za9WRtL5vMWvu5HmXuEBPtFrpb/UJYogzLZWxF8ik+izl8QagJ8ze9rV5Hl+qFvN9JyncsT3Ti9FcchVMG3t8C2rNBPvjWpqUZpJ11zG9ORkBDWJp6nJKdtVsI4AcBlvPlv7Hxaai9Xev6S5Q/yp1cPkiS7bVbBm4kRnzWUcOzIUQU3i6djhY7arYB2/Spdx5um0qhZXiiNa1cDRdNHeqE4w56h0gu9TPQwf6kvkSK4x0sihlTWXc3D/Cwpb+RGqCwjDUAef/5HtalhHALgMU5VmJpkGaBX5kmt1rrNy1pGS9xvbEHNjOQ2/lLz7uc/+ZJXmxmu/bXl0eFQvPHsgghrFy/PP7Ne5EZ4LQABYQH6MS9MqSlW7n2V1wurhW97QU2s1ebL24fC4mDzZqdefWhdZeY889KiGjiVnKmDo6HE9+r3HbFejKdDKLSBI7t1FLSew3Ps2fJfqygSuDj20RWdfXN3S0wHGSGdeXKVD390qE+E21kEQ6Btf/ob2P72/pacDwjDUc/ue1V/8+V8qjOu2rxHjNsAF+PHdFBCXsL2JkZuxevhEMIGr4/+4Tmdf7tPAdWPq2TCjTFdJXswfBxxUXJWmM5o40amRQysjGfa/7HGCQHu/vVcHnn1eN+6+SVu2bVFPb4/SmXgviC6XypqcmNSxw8d08PkfMex/CQLAAnLdJMRWkbb8uGc3uQvVG25uLKehCIfHk2Z0+JweeegR29VAgzAFcDmeUfeKePcc8DMd2dDqdjHptSbR+9UAaE4EgMtYe1tFfoyfB4C3S7lGnTl7gc5rM8psIFACaC4EgEs4rrTlF0u2q4GIDXRVrHbCO24kAABoLgSAS2y+r6TOLn6sW01HJtCKjqq146fXGeXeyfcKQPMgAMyz8l9Ute1Wev+tan1vWe1pe41w9y+HSg0wtQSgORAA3tI+EOiGDxXkOvxAtyrXkbasKiltaX2H4xv1/logt8PK4QHgbQgAujDvv+uzBaV8hmhbne8ZbVpVkiwFPa/NaMU9Ve4KAGAdAUDSpl8rqb2d+/6Toj0dakXO3uedGjDKbSdsArCLACBp4x72ak2agW57CwIlqeMmAicAuxIfALqvqSqXoTeWNNlUqIzFHQL9FZLfw3oTAPYkPgCs3ElPLKk6snY/+9QaAgAAexIfAHI99P6TKmV5t0ePuwEAWJT4AOCmbNcAtriWV+I7lh9SBCDZEh8ASnnux0qqamD3sw9n+e4BsCfxASB/xrNdBVhSrNhtgKsTVg8PIOF82xWwbXi/p/AeR67LcGyShEbKl+yFP1N1VD7DCEDU2vuK6t95Tj3r8sp2leSm4r3GJ6y4Kk5nNHmyU8OH+jQ3lqvr8foH+3Xjnhu0eetW9a7oUSod7znSSrmiifFJHT96XAf3v6DR4VHbVWoqiQ8AQcHV+bO+Vq+t2K4KGmhizldoMfMVjzgyVQJAVFzPaNPtJzW4c8zaLo/14KZCtfUV1NZX0OD1oxp+aZWGnlorE0Q7eOv7vu667y7tunmXHKd1vpepdEqrB1Zp9cAq7bl1t1549oAeeehRBQF3f0lMAUiSXv3vObXOTwauxhhHw1MWezaBNPM8f3pRcT2jHfcf0+C7zrdU438px5EG331OO+47JseLbmTD93199FMf1e5bdrdU438p13W1+9Y9+uinPirPY+pXIgBIkvInHR0/kLVdDTTIqcmUShZ739NPeQqmW/eHttE2335K3etmbFejYXrW57X5tjORlXf3/Xdr09ZNkZXX7DZfs1l33XeX7Wo0BQLAWw5/M6PhE/Ge78LVnc/7Ojdjb+Zr7mVXsz/hzy4q7X1FDew8b7saDTfw7lG19RVqLqd/sF83veemCGoUL7tu3qXVA6tsV8M6fonmOfiFnEZPEwJa1cScp5PjaWvHLxxxNfUPDD1GqX/nuZYe9l+I40gD143VXM6Ne25o6WH/hbiuqxt3Jy/4XIoAMF/g6MDnCQGtaGLO0xvnM9bWehSOuJr8gScWm0SrZ31yhv4v1bOh9nPfcs2WCGoST1u2JffcLyIAXIoQ0HJo/FtXpjO5T/LMdNV+7t09PRHUJJ66e5N77hcRAC4ncPTCn7Vp+CQhIO5sN/5zr9L411fyhq9/KoLvVKK/libRZy+JALAgE0oH/9+cRs7UZ8FYJXQ0MedpZNrX6cmURqZ9Tc15qoSt+4NWDRxNXXLOE3U857G8r9fH0lYb/6knaPzrqTST3JBemql9Pcv05GQENYmnqckp21WwLvEbAV3RWyMBN/3OnPrXVCMpMl/yNDyd0kzBvWy74EjqzAVa1V5VV1sQ+/6NkTQ95+ncrK+ZgneFcw410FVRRyaaDTrG8r7enEhJxs4VpPFvjMkTXWpbUbRdDSsmTnTWXMaxI0Na1b86gtrEz7HDx2xXwTpGAK7mrRBQ60hAaKQ3xtI6MpLR9AKNv/RWg1nwdPx8RofO5DQ85asaw1GBauhoeMrXoTM5HT+f0fQCjb908ZxdHRnJ6M3xdM079NH4J8fwob5EjuQaI40cWllzOQf3v6AwjPd2ycsRhqEOPv8j29WwjgCwGG+FgLPL3CegEjg6OpLV+OzSQkS56ujMVFovn87p1ERaQQz+ToNQOjmR0sunczozlVZ5iRvujOV9HR3JqrLMJ/Wdt934v0Tj30hzYzkNv5S8+7nP/mSV5sZr37xsdHhULzx7IIIaxcvzz+zXuRGeC0AAWKzA0Y8+36ajBzIyS2hcZkuuXhvOara8/EsdGml0xterZ3M1lVNvs2VXr5zN6dxMqqZe/Gx56dfM6ELwODGettL4m0Ca/qF34T5/Gv+GGnpqrSZP1j4cHheTJzv1+lPrIivvkYce1dCxocjKa3ZDR4/r0e89ZrsaTaHmXUm2bNj2QAT1iI2xQ77OvpZWbkOgtg6jhfbQKFZcnZxM6dRkSmFEQ/iBcTQ566szFyjtNVcrky95OnYuqyCicw2No7FZT6Wqp2zKyF/gfEPjaHzO19C5tGaKjV/SYipS8bCriUd8lU7Eb6qmVtnuFbarIBlH5472KpUJ1dE/u+DfZNwZc6Hnf+SxjTIRTgsaY/TSP7+kXFtOa9atadmNgcIw1P6nn9Pf/c23FUb0MKDSlN1neh8/cfQPa3l/zZ/0nbfd21wtUQN5uVADuwN1rAmU7jAyoVQquJo676o4W7+eejprdMOvzinlN8elrwSOXjubresdDBk/VEc2VNq7ELqqgVSquJopearOSoVXGzcyYowUFhwFE1LpVLKf6te9obk2U2nrK2jgujH1bJhRpqskL+aPAw4qrkrTGU2c6NTIoZWRDPtfyeqBVbpx903asm2Lenp7lM7Y2zkzCuVSWZMTkzp2+JgOPv+jyIf9p04cj7S8pXps396afny4C6AGQcHV6X90JTX+VqQj2ax2/HLte4FH4fRkuu63L5aqrkr5yzfy00/5KhxObiOMn5kby2kowuHxpBkdPqdHHnrEdjXQIM07oYwrevORtIol+41eqepqYtbe/vbBlFQ4Yv86AEDcEABiyoTS8FH7m6CM5Re+va8R5l5l0R0ALAcBIMbOv2J/BmemaPfpduWT9P4BYDkIADE2/br9AFCyvACumtydTAGgJgSAGCuOOdY2vJEkGSey2/6Wd3wpLDICAADLQQCIMRNKlWhuZ12WSmh3+j2Yc5j/B4BlIgDEXLlsrwdcqdr9+oR5q4cHgFgjAMTc+Gl76wCmLQ+/J3HnPQCICgEg5k7vt3cr4GTB7iLE4nG+vgCwXPyCxtzYj31NTDT+Vrypgqc5iw8mKg65qowyAgAAy0UAaAGvfKtNjXykd2Ck0xP2Rh5MWZp52u7+AwAQdwSAFjB5xNWhx3ONuSXQOHpzLKOirQWARpp8zFPV7kO4ACD27O8kg0iceDytoOLoXfcU5Ln1uTcuMNKb51OaLNjpfZuKo8nHXBWHyK0AUCsCQAs5/cOU8qdd7fhgUb0rqpGWPVXwdHoiZa3nX3rd0fQ+n54/AESEANBipo56euY/tmvl9VWt2VPRirWB0plQKU+Ss8iRAeOoEl64z3+m5GpirsEL/owUzklB3lHppKPiMRb8AUDUCAAt6vyLvs6/yMcLALg8JlMBAEggAgAAAAlEAAAAIIEIAAAAJBABAACABCIAAACQQAQAAAASiAAAAEACEQAAAEggAgAAAAlEAAAAIIEIAAAAJBABAACABCIAAACQQAQAAAASiAAAAEACEQAAAEggAgAAAAlEAAAAIIEIAAAAJBABAACABCIAAACQQAQAAAASyLddAbxdT/+Artl1i9Zs3a6OFSskSfnxcZ05dlhHnn9GU6PDlmtYm56BQW3fdasGt16j9u5euZ6v6fOjOjt0REcOPKvJ4bO1ld/i1w8AouLUWsCdt91roqhI0rm+p133vF/X7rlNci//sRgT6vCzT+vAI99WWA0aXMPa+KmUbrznN7R9z61ynAW+dqHRq/uf0sGHH1JQrSyp/Fa/fs2qe8MW21UArJk6cdzq8R/bt7emNpwRgCaQSqf1Kx//jAY2XfnH1HFcXXvLe9Xd368nvvbF2DRinp/Sr/ybf6vBrduv/ELX0Ttvvl3dK1fr7//izxcdAlzf0x0f/4wGt2y74usuXr/egUE9+fUvqVIuL/YUAKDlsAbAslQ6rfd94rNXbfznG9yyTbvufn8daxWtm+6+/+qN/zxrrrlWN97964t+/a573n/Vxn++/s1b9b5PfFapdHrR7wGAVkMAsMhPpfW+j31a/Rs3L/m922++VT39A3WoVbT6Btfp2vfctuT3XXvz7epZ1X/V1/X0D2j7e25dcvn9Gzfrjt/6bfmZzJLfCwCtgABgiZ9K646Pf1r9m7cu6/2O4+qaXbdEXKvoXX/H3QvOyV+J4zjadvPVg8O23bfIcZb3NV69YZN+9ZOfJQQASCQCgAWpdFp3fPKzy278L1qzhGF1G/rWrte6d+5Y9vsHFnF9ar0Gqzds0h0f/wzTAQAShwDQYLUM+1+qvXdFBDWqn+t/5a6FV/wvQmdP31VfE8U1YDoAQBJxF0AD1TrsfynHNO8dmLX2/iUtKjxEdQkuTgc8/pUHVS2VoikUSxZUyqrkp1UpFmSqVRkT2q6SVY7jyvF9pbI5pdq75NV5pKrVrn+jr1/cMALQIFEN+8+Xn5yIrKyo1dr7l6Tp8fNXfc3c5HhNx5iP6QCbjArj55QfPqnSzJTCSjn2jU8UjAkVVsoqzUwpP3xSxYnz0aXetx+pJa9/465fPBEAGiDKYf/5zh59LdLyohJF71+Sho8dueprTh89XPNx5mM6wAaj2dGzKuenJX6br6g0M6XZ0bMRN2LJuf71uX7xRQCos6iH/S8yJtThA89GWmZUouj9G2N09IX9V33d4f1PKwyj7alwd0BjFSbOq1os2K5GbFRLBRUmxyIrL2nXP+rrF2cEgDqqx7D/Ra89t68p97XvG1wXSe//1KuHNDFy5qqvmz43oiPPPV3z8S7FdEBjBJXyhZ4nlqT81jB9rZJ6/aO6fnFHAKiTizv8RT3sL0nDrx/XCw9/J/Jyo3D9HXfX3PuXpBd/+INFv/bAI9/W8OvR78ndv3EzOwbWWSUBw871Us7P1FxGkq9/FNcv7ggAdVCvOX9JGn1zSE9+/UtN+RyAqHr/J195WWMnTyz69WE10JNf/aJGho7VfOxLsSagvioJGnqOWrU0V3MZSb7+UVy/uCMARKxec/7Shcb/8a9+sWlvU7PR+7+oWinria99qS4hgDUB9WOW+NRH/ExQrdZcRpKvfxTXL+4IABFKcuNvq/c/HyEgfkwEgTGporhySb7+yT3znyEARCTJjb9kt/c/HyEgXlyPvciWy/Vrv3ZJvv5RXL+4IwBEIOmNfzP0/ucjBMRHKpuzXYXY8jO1X7skX/8orl/cEQBqlPTGX2qe3v98hIB4SLV32a5CbKU7ar92Sb7+UVy/uCMA1IDGv/l6//MRApqfl04r09ltuxqxk+nslpuq/fbUpF7/qK5f3BEAlonG/4Jm7P3PRwhoftmePvkJHopeKj+bU2YRT8pcrKRd/6ivX5wRAJaBxv+CZu79z0cIaHKOo/ZVg0onsCe6VJnObrWtGowkdP9Ugq5/Xa5fjBEAlojG/2eavfc/HyGgyTmOcr0r1Tm4XpnOHnnpND/SuvBI7IvD9J2D65XtXVmf69Ki179h1y+muA9iCWj8fyYuvf/5LoaAenyGF0PA4195MDafYTNyU2lle/skMURrA9c/WRgBWCQa/7eLU+9/PkYCAOACAsAi0Pi/XRx7//MRAgCAAHBVNP4/L669//kIAQCSjgBwBTT+Py/uvf/5CAEAkowAsAAa/8trhd7/fIQAAElFALgMGv/La6Xe/3yEAABJRAC4BI3/wlqt9z8fIQBA0hAA5qHxX1ir9v7nIwQASBICwFto/K+slXv/8xECACQFAUCS63t63yc+U5fGf+SNIT0R893hktD7n69aKevJr39JI28MRV726g2b9L6PfVqu70VeNgAsBQFA0q573q+BTVsiL3fkjSE9+dUHVSmXIy+7kZLS+5+vUi7rya8+WJcQMLBpi3bd/f7IywWApUh8AOjpH9D299waebmjbw7pia99MfaNf9J6//NVymU98ZUH6zIdsP3mW9XTPxB5uQCwWIkPANt23yLHifYytMKc/0VJ7P3PV681AY7j6ppdt0RaJgAsReIDwJqt2yMtrxXm/C9Kcu9/vnqtCYj6uwcAS5H4ANDeuyKyslpl2P+ipPf+56vHdECU3z0AWCrfdgVsMybCwiJoLJsFvf/6cyL98rWGoFJWJT+tSrEgU63KmNB2lVADx3Hl+L5S2ZxS7V3y0mnbVcI8iR8BmJscj6ys1Rs26Y6Pf0apFviS0/t/u1Q6rTs++dlIbxXNT05EVlb8GRXGzyk/fFKlmSmFlTKNfwswJlRYKas0M6X88EkVJ85H3OtCLRIfAE4fPRxpef0bN+uO3/rtWG/2Qu//7fxUWu/72KfVv3FzpOWePfpapOXFl9Hs6FmV89MSbUNLK81MaXb0LCGgSSQ+ABze/7TCMNqeRtx3fKP3/zP12iHSmFCHDzwbaZlxVZg4r2qxYLsaaJBqqaDC5JjtakAEAE2fG9GR556OvNy4TgfQ+/+Zegz7X/Tac/s0NToceblxE1TKF3r+SJTyW9M8sCvxAUCSDjzybQ2/fjzycvs3btb7PvHZWIUAev8XpNJpve8Tn4182F+Shl8/rhce/k7k5cZRhWH/xCrnZ2xXIfEIAJLCaqAnv/rFuuz4Fqc1AfT+L6jXnL904VbRJ7/+JYXVIPKy46jC0H9iVUtztquQeASAt/AUOHr/Ek+FbDRTrdiuAiwJqlXbVUg8AsA8SQ4B9P5p/G0wLbR3BpaGT94+AsAlkhoCkt77p/G3w/USvxdZYrk+n71tBIDLSFoISHrvn8bfnlQ2Z7sKsMTP8NnbRgBYQJJCQJJ7/zT+dqXau2xXAZakO/jsbSMAXEESQkCSe/80/vZ56bQynd22q4EGy3R2y03F5/boVkUAuIpWDwFJ7f3T+DePbE+ffKYCEsPP5pTp6bNdDYgAsCitGgKS2vun8W8yjqP2VYNKMxLQ8jKd3WpbNRhJpwO1IwAsUiuGgCT2/mn8m5TjKNe7Up2D65Xp7JGXTtNItADHcX46zdM5uF7Z3pV8rk2E+zCW4GIIqEcDcjEEPP6VBxvSgCSx90/j3/zcVFrZ3j5JDBED9cYIwBK1ykhA0nr/NP4A8HYEgGWIewhIWu+fxh8Afh4BYJniHAKS1Pun8QeAyyMA1CCOISBJvX8afwBYGAGgRnELAUnp/dP4A8CVEQAiEJcQkJTeP40/AFwdASAicQgBSej90/gDwOIQACLUzCEgCb1/Gn8AWDwCQMSaNQS0eu+fxh8AloYAUAfVSllPfv1LGnljKPKyV2/YpPd97NNyfW/R72n13r/re3rfJz5Tl8Z/5I0hPdGg3RkBoJEIAHVSKZf15FcfrEsIGNi0Rbvufv+iX9/qvf9d97xfA5u2RF7uyBtDevKrD6pSLkdeNgDYRgCoo0q5rCe+8mBdpgO233yrevoHrvq63oE1Ld377+kf0Pb33Bp5uaNvDumJr32Rxh9AyyIA1Fm91gQ4jqtrdt1y1ddds/vmmnv/xhi9+PeP1lRGvWzbfYscJ9qvMXP+AJKAANAA9VoTsGbr9qu+ZnDztpqPc+rVQxo7fbLmcuphMddgKZjzB5AUBIAGqcd0QHvviqu+pmNFbY9Vbebev7S4a7BYDPsDSBICQANFPR3gGBPJa66kmXv/klTj6f0Uw/4AkoYA0GBRTgfkJyeu+pqZifGajtGsK/8vmpus7fwkhv0BJBMBwIKopgPOHn3tqq8ZPn502eU368r/+U4fPVzT+xn2B5BUBABLap0OMCbU4QPPXvV1h5/fJ7OccfLQ6MdPPrKMmjXW4f1PKwzDZb2XYX8ASUYAsKiW6YDXntunqdHhq75ucmRYh5/dt/Tyn39a42dOLfl9jTZ9bkRHnnt6ye9j2B9A0hEALPvpjoFLGAk4e/yIXnj4O4t+/cFHv6szi5gu+Gn5Q0f0wve/vejX23bgkW/r7PEji379yNAxdvgDkHiL31B+AVs2bHsggnokWhgEGvrJQWWybepbt37BjXuMCfXac09p37f+UmE1WHz5Yag3X3pRqVxWq9ZukK5Q/uH9T+vpv/0rBUF1WedigwmNXv/JjxZ9/Z761jcUVOJzfs0s2x3dbZhA3JSmrr4Qu56Onzj6h7W8v+YN4u+87d6IbsSCdGFr22t23aI1W7erY8WFH9f82JjOHD+iI88/s6hh/6uWf+N7NLhtuzp7+uR4rmYmxnXmtVf06rP/pHyNdw3YVu/rh7fr3hD9MxiAuJg6cdzq8R/bt7emNpwAAGDZCABIsrgHANYAAACQQAQAAAASiAAAAEACEQAAAEggAgAAAAlEAAAAIIEIAAAAJFDtAWCBXdcAAGhd1rfAqflBJjUHAMdhEAEAkCzLfQppVBxpptYyGAEAAGCpQrsjAKYZAoDrunZjEAAADWaCxT+QrS7Hd8z5WsuofQrA9Qq1lgEAQJwEgd3HiTuhc7jWMmqfAnCdczWXAQBAjISVit0KOMZ+AHCln9RaBgAAcRJW7I4AGLmHai2j5gBQ9ap/XGsZAADEhpGCYtFmDcKK7zxVayE1B4BHH/32PtdPWb8hEgCARgiqJYWhvUWAjnFe/OEPv2d/EaAkOb7POgAAQCJUi3bXvhvpiSjKiWYXH8f5QiTlAADQ5CqzeavHNyb86yjKiWwXn7t+6TfCsFphVyAgQbo3bLFdBaChwkpZM2dPWju+kV55fN/eHVGUFdk+vl4q/VpUZQEA0IzK+WnLNXD+W1QlRRYAshn/fsfluQAAgNZkwkCl2Zp34K3FeM64X46qsMha7L/7/l8f9dLZN6MqDwCAZlKemZIsPgTIGP3Xh55+KLIEEmmXPe3oNxzXi7JIAACsC4NApekpm1UYMbnS56MsMNIA8J3Hv/XjVCa7L8oyAQCwrTg5JmPs9f4dmd974oknIk0gkU/af//xv/0lL52x+5gkAAAiUi0VVLE592/0Tz/Y9/BfRl1sPVbtBSkn9THHYUEgACDeTBiqMGZ1r7vJ0NEnJEW+425dWumHnvzmX3m5tu/Vo2wAABplbnxUYdXek/9co996Yt/eobqUXY9CJenhx755XyqbG6lX+QAA1FNpelLVuVlrx3dk/tOjT+/9H/Uqv67j9Huf+O9r/Uyb7V0TAABYksrsjIpTYxZr4Pz1zft2/0E9j1Dvifqg7Exs8DMZuw9OBgBgkaqFWRXGz9Vh1n2xnO+PFc5+/AE9UNfbDuq+Uu+JJ56Ymgu8Pj+bs3oDJQAAV1Oem9Hc+REZY6n1N/rLscLZ/+ngwYN1X3jQyIf3ePfc8cFT1eLcQAOPCaCOeBgQWklpelLFSWvD/saR+eMf7Hv4/1CDxh4aea9e8PAT3xpM5Tr+B88MAAA0CxOGmjs/YrPxn3aM+fAP9j38+2rgxEPDW+K9j3/zA06m4ze9dLra6GMDADBftVRQfvikKnN5OxUw+ie57i/84OmH/7bRh27kFMClvHt/9UNPVMuFXzIBGwcCccQUAOLKhIGKk+M2H+87LukPHtu398uytNzQZgCQJN1xz//8rkyl/N1qqbTJhAQBIE4IAIgbE4Qq5ydVmp6ys7e/ozET6s9MrvT5qPf2X3pVmsS9935yc1iefchUiteF1WrT1AvAwggAiIugXFZldkbl/JStFf4vyzFfKXvtX/7hD79lab7h7Zqyob3rrn/1B27V+ZwJqquDatm1dy8mgCshAKBpGSmolN56kE9eQbnU6BqEkn4i4zxuTPjXjz/z8I8bXYGracoAMN8993x0j1Mu/oFR+C5jnH6ZIGeC0DHGOMaEkq17NQEQAGCXMTImlAkv/BdWKgqqZYWVsoJiUWH9p5XLkvKSJiWNy9FhGfOakXuo4jtP/fCH3ztf7woAAAAAAAAAAAAAAAAAAAAAAAAAAAAAAAAAAAAAAAAAAAAAAAAAAAAAAAAAAAAAAAAAAAAAAAAAAAAAAAAAAAAAAAAAAAAAAAAAAAAAAAAAAAAAAAAAAAAAAAAAAAAAAAAAAAAAAAAAAAAAAAAAAAAAAAAAAAAAAAAAAAAAAAAAAAAAAAAAAAAAAAAAAAAAAAAAAAAAAAAAAAAAAAAAAAAAAAAAAAAAAAAAAAAAAAAAAAAAAAAAAAAAAAAAAAAAQDP4/wHOOdCL/nGDAAAAAUlEQVTcp13jFwAAAABJRU5ErkJggg==;" vertex="1" parent="GKxMql-4dVrDTyN0ciHh-47">
          <mxGeometry x="65.00322580645158" y="437.9977419354839" width="90" height="90" as="geometry" />
        </mxCell>
        <mxCell id="GKxMql-4dVrDTyN0ciHh-44" value="&lt;font color=&quot;#000000&quot;&gt;API&lt;/font&gt;&lt;div&gt;&lt;font color=&quot;#000000&quot;&gt;Endpoint&lt;/font&gt;&lt;/div&gt;" style="text;html=1;align=center;verticalAlign=middle;resizable=0;points=[];autosize=1;strokeColor=none;fillColor=none;" vertex="1" parent="GKxMql-4dVrDTyN0ciHh-47">
          <mxGeometry y="595" width="65" height="41" as="geometry" />
        </mxCell>
        <mxCell id="GKxMql-4dVrDTyN0ciHh-45" value="&lt;font color=&quot;#000000&quot;&gt;API&lt;/font&gt;&lt;div&gt;&lt;font color=&quot;#000000&quot;&gt;Endpoint&lt;/font&gt;&lt;/div&gt;" style="text;html=1;align=center;verticalAlign=middle;resizable=0;points=[];autosize=1;strokeColor=none;fillColor=none;" vertex="1" parent="GKxMql-4dVrDTyN0ciHh-47">
          <mxGeometry x="77.5" y="604" width="65" height="41" as="geometry" />
        </mxCell>
        <mxCell id="GKxMql-4dVrDTyN0ciHh-46" value="&lt;font color=&quot;#000000&quot;&gt;API&lt;/font&gt;&lt;div&gt;&lt;font color=&quot;#000000&quot;&gt;Endpoint&lt;/font&gt;&lt;/div&gt;" style="text;html=1;align=center;verticalAlign=middle;resizable=0;points=[];autosize=1;strokeColor=none;fillColor=none;" vertex="1" parent="GKxMql-4dVrDTyN0ciHh-47">
          <mxGeometry x="152" y="602" width="65" height="41" as="geometry" />
        </mxCell>
        <mxCell id="GKxMql-4dVrDTyN0ciHh-17" value="&lt;font color=&quot;#000000&quot;&gt;HVAC&lt;/font&gt;&lt;div&gt;&lt;font color=&quot;#000000&quot;&gt;Status&lt;/font&gt;&lt;/div&gt;" style="text;html=1;align=center;verticalAlign=middle;resizable=0;points=[];autosize=1;strokeColor=none;fillColor=none;" vertex="1" parent="1">
          <mxGeometry x="922" y="62" width="52" height="41" as="geometry" />
        </mxCell>
      </root>
    </mxGraphModel>
  </diagram>
</mxfile>
